<svg width="14" height="16" viewBox="0 0 14 16" fill="none" xmlns="http://www.w3.org/2000/svg">
<path d="M14 9C14 10.9467 13.32 12.6 11.96 13.96C10.6 15.32 8.94667 16 7 16C5.05267 16 3.39933 15.32 2.04 13.96C0.680667 12.6 0.000666667 10.9467 0 9C0 8.16867 0.130667 7.38133 0.392 6.638C0.653334 5.89467 1.03167 5.21967 1.527 4.613C1.617 4.499 1.728 4.43567 1.86 4.423C1.992 4.40967 2.113 4.45833 2.223 4.569C2.32967 4.67567 2.38167 4.799 2.379 4.939C2.37633 5.079 2.33 5.208 2.24 5.326C1.848 5.83933 1.54333 6.40133 1.326 7.012C1.10867 7.62267 1 8.28533 1 9C1 10.6667 1.58333 12.0833 2.75 13.25C3.91667 14.4167 5.33333 15 7 15C8.66667 15 10.0833 14.4167 11.25 13.25C12.4167 12.0833 13 10.6667 13 9C13 8.28533 12.8913 7.62267 12.674 7.012C12.4567 6.40133 12.152 5.83933 11.76 5.326C11.67 5.20867 11.6237 5.07967 11.621 4.939C11.6183 4.799 11.6703 4.67567 11.777 4.569C11.887 4.45833 12.008 4.40967 12.14 4.423C12.272 4.43567 12.383 4.499 12.473 4.613C12.9677 5.21967 13.346 5.89467 13.608 6.638C13.8693 7.38133 14 8.16867 14 9ZM7.5 1.992L7.5 9.384C7.5 9.52667 7.45233 9.64567 7.357 9.741C7.261 9.83633 7.142 9.884 7 9.884C6.858 9.884 6.739 9.83633 6.643 9.741C6.54767 9.64567 6.5 9.52667 6.5 9.384L6.5 1.992L4.754 3.738C4.66067 3.83133 4.546 3.88133 4.41 3.888C4.274 3.89467 4.15267 3.84467 4.046 3.738C3.93933 3.63133 3.886 3.51333 3.886 3.384C3.886 3.25467 3.93933 3.13667 4.046 3.03L6.435 0.642C6.59633 0.480667 6.78467 0.4 7 0.4C7.21533 0.4 7.40367 0.480667 7.565 0.642L9.954 3.03C10.0473 3.12333 10.0973 3.23833 10.104 3.375C10.1107 3.51033 10.0607 3.63133 9.954 3.738C9.84733 3.84467 9.72933 3.898 9.6 3.898C9.47067 3.898 9.35267 3.84467 9.246 3.738L7.5 1.992Z" fill="#333333"/>
</svg>
