<svg width="14" height="16" viewBox="0 0 14 16" fill="none" xmlns="http://www.w3.org/2000/svg">
<path d="M14 7C14 5.05333 13.32 3.4 11.96 2.04C10.6 0.68 8.94667 0 7 0C5.05267 0 3.39933 0.68 2.04 2.04C0.680667 3.4 0.000666667 5.05333 0 7C0 7.83133 0.130667 8.61867 0.392 9.362C0.653334 10.1053 1.03167 10.7803 1.527 11.387C1.617 11.501 1.728 11.5643 1.86 11.577C1.992 11.5903 2.113 11.5417 2.223 11.431C2.32967 11.3243 2.38167 11.201 2.379 11.061C2.37633 10.921 2.33 10.792 2.24 10.674C1.848 10.1607 1.54333 9.59867 1.326 8.988C1.10867 8.37733 1 7.71467 1 7C1 5.33333 1.58333 3.91667 2.75 2.75C3.91667 1.58333 5.33333 1 7 1C8.66667 1 10.0833 1.58333 11.25 2.75C12.4167 3.91667 13 5.33333 13 7C13 7.71467 12.8913 8.37733 12.674 8.988C12.4567 9.59867 12.152 10.1607 11.76 10.674C11.67 10.7913 11.6237 10.9203 11.621 11.061C11.6183 11.201 11.6703 11.3243 11.777 11.431C11.887 11.5417 12.008 11.5903 12.14 11.577C12.272 11.5643 12.383 11.501 12.473 11.387C12.9677 10.7803 13.346 10.1053 13.608 9.362C13.8693 8.61867 14 7.83133 14 7ZM7.5 14.008L7.5 6.616C7.5 6.47333 7.45233 6.35433 7.357 6.259C7.261 6.16367 7.142 6.116 7 6.116C6.858 6.116 6.739 6.16367 6.643 6.259C6.54767 6.35433 6.5 6.47333 6.5 6.616L6.5 14.008L4.754 12.262C4.66067 12.1687 4.546 12.1187 4.41 12.112C4.274 12.1053 4.15267 12.1553 4.046 12.262C3.93933 12.3687 3.886 12.4867 3.886 12.616C3.886 12.7453 3.93933 12.8633 4.046 12.97L6.435 15.358C6.59633 15.5193 6.78467 15.6 7 15.6C7.21533 15.6 7.40367 15.5193 7.565 15.358L9.954 12.97C10.0473 12.8767 10.0973 12.7617 10.104 12.625C10.1107 12.4897 10.0607 12.3687 9.954 12.262C9.84733 12.1553 9.72933 12.102 9.6 12.102C9.47067 12.102 9.35267 12.1553 9.246 12.262L7.5 14.008Z" fill="#333333"/>
</svg>
