<svg width="18" height="18" viewBox="0 0 18 18" fill="none" xmlns="http://www.w3.org/2000/svg">
<path d="M18 2.8501C18 2.1539 17.7234 1.48623 17.2312 0.993942C16.7389 0.501659 16.0712 0.225098 15.375 0.225098H2.625C1.93002 0.229035 1.26463 0.506861 0.773196 0.998293C0.281764 1.48973 0.00393765 2.15512 0 2.8501L0 12.6001C0.0248583 13.321 0.27899 14.0151 0.72545 14.5816C1.17191 15.1481 1.78742 15.5574 2.4825 15.7501C11.58 17.8726 11.025 17.7751 11.43 17.7751C11.9088 17.7902 12.3771 17.6332 12.75 17.3326C12.9998 17.1209 13.1974 16.8544 13.3274 16.554C13.4575 16.2535 13.5166 15.9271 13.5 15.6001V8.3326C13.5001 7.63484 13.2723 6.95615 12.8513 6.39974C12.4302 5.84333 11.839 5.43965 11.1675 5.2501L3.045 3.0001C2.90079 2.96131 2.77789 2.86682 2.70335 2.73742C2.6288 2.60802 2.60871 2.45431 2.6475 2.3101C2.68629 2.16589 2.78077 2.04299 2.91017 1.96844C3.03958 1.8939 3.19329 1.87381 3.3375 1.9126C6.135 2.6626 5.9775 2.6626 6.015 2.6626H15.375C15.5242 2.6626 15.6673 2.72186 15.7727 2.82735C15.8782 2.93284 15.9375 3.07591 15.9375 3.2251C15.9375 3.37428 15.8782 3.51736 15.7727 3.62284C15.6673 3.72833 15.5242 3.7876 15.375 3.7876H11.445C11.4002 3.78907 11.3575 3.80651 11.3245 3.83678C11.2914 3.86704 11.2704 3.90813 11.265 3.9526C11.2578 3.99807 11.2676 4.0446 11.2925 4.08333C11.3174 4.12206 11.3556 4.15027 11.4 4.1626C12.2832 4.38889 13.0713 4.89065 13.65 5.5951C13.6682 5.61701 13.6912 5.63448 13.7172 5.64617C13.7432 5.65787 13.7715 5.66349 13.8 5.6626H15.375C15.5242 5.6626 15.6673 5.72186 15.7727 5.82735C15.8782 5.93284 15.9375 6.07591 15.9375 6.2251C15.9375 6.37428 15.8782 6.51736 15.7727 6.62284C15.6673 6.72833 15.5242 6.7876 15.375 6.7876H14.625C14.5951 6.78781 14.5658 6.79547 14.5396 6.80987C14.5134 6.82428 14.4912 6.84497 14.475 6.8701C14.4624 6.89578 14.4559 6.924 14.4559 6.9526C14.4559 6.9812 14.4624 7.00942 14.475 7.0351C14.6133 7.45375 14.6842 7.8917 14.685 8.3326V13.5376C14.685 13.5873 14.7048 13.635 14.7399 13.6702C14.7751 13.7053 14.8228 13.7251 14.8725 13.7251H15.435C16.1207 13.7094 16.7731 13.426 17.2525 12.9354C17.7319 12.4448 18.0002 11.786 18 11.1001V2.8501ZM11.625 11.4751C11.625 11.7718 11.537 12.0618 11.3722 12.3085C11.2074 12.5551 10.9731 12.7474 10.699 12.8609C10.4249 12.9744 10.1233 13.0042 9.83237 12.9463C9.54139 12.8884 9.27412 12.7455 9.06434 12.5358C8.85456 12.326 8.7117 12.0587 8.65382 11.7677C8.59594 11.4768 8.62565 11.1752 8.73918 10.9011C8.85271 10.627 9.04497 10.3927 9.29165 10.2279C9.53832 10.0631 9.82833 9.9751 10.125 9.9751C10.5228 9.9751 10.9044 10.1331 11.1857 10.4144C11.467 10.6957 11.625 11.0773 11.625 11.4751Z" fill="#AE9300"/>
</svg>
