<svg width="18" height="12" viewBox="0 0 18 12" fill="none" xmlns="http://www.w3.org/2000/svg">
<path d="M17.145 2.69249L13.065 5.41499C12.9408 5.49842 12.7946 5.54282 12.645 5.54249H8.24999C8.11487 5.55827 7.99025 5.62314 7.89981 5.72477C7.80937 5.82639 7.7594 5.95769 7.7594 6.09374C7.7594 6.22978 7.80937 6.36108 7.89981 6.46271C7.99025 6.56433 8.11487 6.6292 8.24999 6.64499H13.0275C13.137 6.64155 13.2435 6.6078 13.335 6.54749L17.7375 3.61499C17.8444 3.52826 17.9153 3.40487 17.9364 3.26879C17.9575 3.13271 17.9272 2.99366 17.8514 2.87866C17.7757 2.76366 17.6599 2.68092 17.5266 2.64651C17.3933 2.61211 17.2519 2.62849 17.13 2.69249H17.145Z" fill="#AE9300"/>
<path d="M17.145 5.08505L13.065 7.80005C12.9408 7.88348 12.7946 7.92789 12.645 7.92755H8.24997C8.13182 7.95907 8.02739 8.02872 7.95289 8.12569C7.8784 8.22266 7.83801 8.34152 7.83801 8.4638C7.83801 8.58608 7.8784 8.70494 7.95289 8.80191C8.02739 8.89888 8.13182 8.96854 8.24997 9.00005H13.0275C13.1342 9.00035 13.2386 8.96903 13.3275 8.91005L17.7525 6.00005C17.8701 5.91927 17.9521 5.79627 17.9814 5.6566C18.0108 5.51693 17.9852 5.37134 17.91 5.25005C17.8711 5.18838 17.8203 5.13508 17.7606 5.09329C17.7009 5.0515 17.6334 5.02206 17.5622 5.00669C17.4909 4.99132 17.4173 4.99034 17.3457 5.00379C17.274 5.01725 17.2058 5.04488 17.145 5.08505Z" fill="#AE9300"/>
<path d="M17.145 7.50017L13.065 10.2227C12.9409 10.3061 12.7946 10.3505 12.645 10.3502H8.25001C8.10481 10.3502 7.96555 10.4078 7.86287 10.5105C7.7602 10.6132 7.70251 10.7525 7.70251 10.8977C7.70251 11.0429 7.7602 11.1821 7.86287 11.2848C7.96555 11.3875 8.10481 11.4452 8.25001 11.4452H13.0275C13.1364 11.4444 13.2429 11.4132 13.335 11.3552L17.7375 8.41517C17.8552 8.33438 17.9372 8.21138 17.9665 8.07172C17.9958 7.93205 17.9702 7.78645 17.895 7.66517C17.8142 7.54775 17.6918 7.4654 17.5526 7.43477C17.4133 7.40414 17.2677 7.42751 17.145 7.50017Z" fill="#AE9300"/>
<path d="M4.22248 5.54257H0.547476C0.412354 5.55836 0.287736 5.62322 0.197294 5.72485C0.106851 5.82647 0.0568848 5.95778 0.0568848 6.09382C0.0568848 6.22986 0.106851 6.36116 0.197294 6.46279C0.287736 6.56441 0.412354 6.62928 0.547476 6.64507H4.22248C4.30027 6.65416 4.3791 6.64668 4.45379 6.62313C4.52849 6.59957 4.59735 6.56048 4.65586 6.50841C4.71436 6.45634 4.76118 6.39248 4.79325 6.32103C4.82531 6.24957 4.84188 6.17214 4.84188 6.09382C4.84188 6.0155 4.82531 5.93807 4.79325 5.86661C4.76118 5.79516 4.71436 5.73129 4.65586 5.67923C4.59735 5.62716 4.52849 5.58806 4.45379 5.56451C4.3791 5.54096 4.30027 5.53348 4.22248 5.54257Z" fill="#AE9300"/>
<path d="M4.22246 7.92755H0.547456C0.429306 7.95906 0.324872 8.02872 0.250377 8.12569C0.175882 8.22266 0.135498 8.34152 0.135498 8.4638C0.135498 8.58608 0.175882 8.70494 0.250377 8.80191C0.324872 8.89888 0.429306 8.96853 0.547456 9.00005H4.22246C4.30025 9.00914 4.37908 9.00166 4.45377 8.97811C4.52847 8.95455 4.59733 8.91546 4.65584 8.86339C4.71434 8.81132 4.76116 8.74746 4.79323 8.67601C4.82529 8.60455 4.84186 8.52712 4.84186 8.4488C4.84186 8.37048 4.82529 8.29305 4.79323 8.22159C4.76116 8.15014 4.71434 8.08628 4.65584 8.03421C4.59733 7.98214 4.52847 7.94304 4.45377 7.91949C4.37908 7.89594 4.30025 7.88846 4.22246 7.89755V7.92755Z" fill="#AE9300"/>
<path d="M4.2225 10.3201H0.5475C0.402294 10.3201 0.263035 10.3778 0.160359 10.4804C0.0576829 10.5831 0 10.7224 0 10.8676C0 11.0128 0.0576829 11.152 0.160359 11.2547C0.263035 11.3574 0.402294 11.4151 0.5475 11.4151H4.2225C4.36771 11.4151 4.50696 11.3574 4.60964 11.2547C4.71232 11.152 4.77 11.0128 4.77 10.8676C4.77 10.7224 4.71232 10.5831 4.60964 10.4804C4.50696 10.3778 4.36771 10.3201 4.2225 10.3201Z" fill="#AE9300"/>
<path d="M8.64001 3.88505C8.64001 3.98252 8.67873 4.07599 8.74765 4.14491C8.81657 4.21383 8.91005 4.25255 9.00751 4.25255H13.0425C13.1142 4.25118 13.1842 4.23045 13.245 4.19255L17.655 1.25255C17.7216 1.20978 17.7719 1.14584 17.7978 1.07101C17.8236 0.996175 17.8235 0.914822 17.7975 0.840051C17.775 0.766155 17.7293 0.701467 17.6671 0.655547C17.605 0.609627 17.5298 0.584911 17.4525 0.585051H13.41C13.3377 0.581755 13.2664 0.602889 13.2075 0.645051L8.79751 3.57755C8.74898 3.61286 8.70943 3.65909 8.68207 3.71251C8.65471 3.76593 8.6403 3.82503 8.64001 3.88505Z" fill="#AE9300"/>
<path d="M9.35255 0.840114C9.3286 0.765618 9.28149 0.700713 9.21809 0.654847C9.15469 0.608982 9.0783 0.584553 9.00005 0.585115H4.98755C4.91537 0.582936 4.84439 0.603966 4.78505 0.645115L0.382552 3.57761C0.320282 3.62093 0.272609 3.68211 0.245829 3.75307C0.219049 3.82404 0.21442 3.90146 0.232552 3.97511C0.251226 4.05444 0.296261 4.12508 0.360292 4.17549C0.424323 4.22589 0.503562 4.25309 0.585052 4.25261H4.59005C4.66191 4.25243 4.73219 4.2316 4.79255 4.19261L9.20255 1.25261C9.26861 1.20915 9.31888 1.14553 9.3459 1.07122C9.37292 0.996905 9.37525 0.915859 9.35255 0.840114Z" fill="#AE9300"/>
</svg>
