<svg width="18" height="18" viewBox="0 0 18 18" fill="none" xmlns="http://www.w3.org/2000/svg">
<path d="M17.82 1.50192C17.82 0.895849 17.3286 0.404449 16.7224 0.404449H1.35705C0.512171 0.345274 -0.079879 1.22292 0.291371 1.98417C0.463646 2.3375 0.811346 2.57202 1.20345 2.59947C1.29135 2.61665 1.35532 2.69285 1.35705 2.7824V13.3918C1.35885 13.4801 1.29727 13.5571 1.21072 13.5747C0.647471 13.6311 0.356396 14.276 0.686846 14.7357C0.840146 14.949 1.09567 15.0642 1.35705 15.0381H8.30812C8.40915 15.0381 8.49104 15.12 8.49104 15.2211V15.4479C8.49172 15.5094 8.4615 15.567 8.4105 15.6015C7.71832 16.0859 7.81005 17.138 8.57565 17.4953C9.34125 17.8526 10.2065 17.2471 10.1332 16.4054C10.105 16.082 9.93502 15.7876 9.669 15.6015C9.61807 15.567 9.58785 15.5094 9.58852 15.4479V15.2211C9.58852 15.12 9.67042 15.0381 9.77145 15.0381H16.7224C17.2857 15.0945 17.6987 14.5199 17.4659 14.004C17.3578 13.7645 17.1302 13.6009 16.8688 13.5747C16.7823 13.5571 16.7207 13.4801 16.7224 13.3918V2.76777C16.7242 2.67822 16.7882 2.60202 16.8761 2.58485C17.4161 2.5085 17.8181 2.04725 17.82 1.50192ZM15.2591 13.3918C15.2591 13.4928 15.1772 13.5747 15.0762 13.5747H3.00337C2.90235 13.5747 2.82045 13.4928 2.82045 13.3918V2.7824C2.82045 2.68137 2.90235 2.59947 3.00337 2.59947H15.0762C15.1772 2.59947 15.2591 2.68137 15.2591 2.7824V13.3918Z" fill="#AE9300"/>
<path d="M6.66174 12.1114C6.66572 12.4128 6.90909 12.6562 7.21052 12.6601H14.1615C14.5839 12.6586 14.8463 12.2003 14.6337 11.8353C14.5358 11.6671 14.3561 11.5633 14.1615 11.5627H13.6127C13.5117 11.5627 13.4298 11.4808 13.4298 11.3797V8.08709C13.4298 7.68299 13.1022 7.35547 12.6981 7.35547H11.9664C11.5623 7.35547 11.2348 7.68299 11.2348 8.08709V11.3797C11.2348 11.4808 11.1529 11.5627 11.0519 11.5627H10.3202C10.2191 11.5627 10.1372 11.4808 10.1372 11.3797V10.2822C10.1372 9.87809 9.80964 9.55049 9.40554 9.55049H8.67384C8.26974 9.55049 7.94214 9.87809 7.94214 10.2822V11.3797C7.94214 11.4808 7.86024 11.5627 7.75922 11.5627H7.21052C6.90909 11.5666 6.66564 11.8099 6.66174 12.1114Z" fill="#AE9300"/>
<path d="M7.57642 8.26996C7.60342 7.68818 7.32636 7.13408 6.84472 6.80663L5.47649 5.92861C5.41634 5.88721 5.38064 5.81866 5.38131 5.74568C5.38514 5.62606 5.48122 5.52998 5.60084 5.52616H6.84472C7.24882 5.52616 7.57642 5.19856 7.57642 4.79446C7.58227 4.43671 7.32839 4.12718 6.97641 4.06283C6.90306 4.04716 6.84577 3.98986 6.83009 3.91643C6.76574 3.56446 6.45622 3.31066 6.09839 3.31651C5.73427 3.32071 5.42864 3.59198 5.38131 3.95303C5.37577 4.03013 5.31847 4.09343 5.24234 4.10671C3.97732 4.35856 3.45929 5.88541 4.30994 6.855C4.40939 6.96833 4.52362 7.0677 4.64969 7.15051L5.99594 8.04316C6.07499 8.09026 6.12044 8.17823 6.11301 8.26996C6.10919 8.38958 6.01311 8.48566 5.89349 8.48948H4.64969C4.24559 8.48948 3.91799 8.81708 3.91799 9.22118C3.91214 9.57893 4.16594 9.88846 4.51799 9.95288C4.59134 9.96848 4.64864 10.0259 4.66432 10.0992C4.72867 10.4512 5.03819 10.705 5.39601 10.6992C5.76321 10.7028 6.07627 10.4336 6.12764 10.07C6.13567 9.99391 6.19184 9.93181 6.26669 9.91628C7.03784 9.74663 7.58444 9.05956 7.57642 8.26996Z" fill="#AE9300"/>
</svg>
