<svg width="18" height="16" viewBox="0 0 18 16" fill="none" xmlns="http://www.w3.org/2000/svg">
<path d="M18 5.99756C18 5.69919 17.8815 5.41304 17.6705 5.20206C17.4595 4.99108 17.1734 4.87256 16.875 4.87256H11.9475C11.8981 4.87524 11.8508 4.89363 11.8125 4.92506L7.0575 9.68006C6.85287 9.88748 6.59226 10.0308 6.3075 10.0926C5.59606 10.2812 4.87155 10.4166 4.14 10.4976C3.9158 10.5019 3.69348 10.4559 3.48941 10.3629C3.28534 10.27 3.1047 10.1325 2.96079 9.96048C2.81688 9.78851 2.71336 9.58646 2.65785 9.36919C2.60233 9.15193 2.59623 8.92499 2.64 8.70506L3.015 6.83006C3.07674 6.5453 3.22008 6.28469 3.4275 6.08006L4.3125 5.19506C4.33635 5.16761 4.35204 5.13403 4.35782 5.09813C4.36359 5.06223 4.35921 5.02542 4.34517 4.99188C4.33112 4.95833 4.30798 4.92939 4.27835 4.9083C4.24873 4.88722 4.21379 4.87484 4.1775 4.87256H1.125C0.826631 4.87256 0.540483 4.99108 0.329505 5.20206C0.118526 5.41304 0 5.69919 0 5.99756L0 14.2476C0 14.5459 0.118526 14.8321 0.329505 15.0431C0.540483 15.254 0.826631 15.3726 1.125 15.3726H16.875C17.1734 15.3726 17.4595 15.254 17.6705 15.0431C17.8815 14.8321 18 14.5459 18 14.2476V5.99756ZM9.375 11.8101H15.375C15.5242 11.8101 15.6673 11.8693 15.7727 11.9748C15.8782 12.0803 15.9375 12.2234 15.9375 12.3726C15.9375 12.5217 15.8782 12.6648 15.7727 12.7703C15.6673 12.8758 15.5242 12.9351 15.375 12.9351H9.375C9.22582 12.9351 9.08274 12.8758 8.97725 12.7703C8.87176 12.6648 8.8125 12.5217 8.8125 12.3726C8.8125 12.2234 8.87176 12.0803 8.97725 11.9748C9.08274 11.8693 9.22582 11.8101 9.375 11.8101Z" fill="#AE9300"/>
<path d="M4.23751 6.8602C4.18564 6.91163 4.14926 6.9766 4.13251 7.0477L3.75001 8.9227C3.73773 8.98325 3.74091 9.04591 3.75927 9.1049C3.77762 9.16389 3.81055 9.2173 3.85501 9.2602C3.89748 9.30525 3.95086 9.33858 4.00998 9.35697C4.0691 9.37536 4.13197 9.3782 4.19251 9.3652L6.06751 8.9902C6.13924 8.9751 6.20465 8.93847 6.25501 8.8852L12.075 3.0727C12.3307 2.8016 12.4708 2.4415 12.4653 2.06885C12.4599 1.69619 12.3094 1.34033 12.0459 1.0768C11.7824 0.813263 11.4265 0.662812 11.0539 0.657379C10.6812 0.651946 10.3211 0.79196 10.05 1.0477L4.23751 6.8602Z" fill="#AE9300"/>
</svg>
