<svg width="18" height="16" viewBox="0 0 18 16" fill="none" xmlns="http://www.w3.org/2000/svg">
<path d="M17.8501 1.25C17.8501 0.951631 17.7316 0.665483 17.5206 0.454505C17.3096 0.243526 17.0235 0.125 16.7251 0.125H6.2251C5.92673 0.125 5.64058 0.243526 5.4296 0.454505C5.21862 0.665483 5.1001 0.951631 5.1001 1.25V7.25C5.1001 7.54837 5.21862 7.83452 5.4296 8.0455C5.64058 8.25647 5.92673 8.375 6.2251 8.375H16.7251C17.0235 8.375 17.3096 8.25647 17.5206 8.0455C17.7316 7.83452 17.8501 7.54837 17.8501 7.25V1.25ZM16.3501 6.6875C16.3501 6.73723 16.3303 6.78492 16.2952 6.82008C16.26 6.85525 16.2123 6.875 16.1626 6.875H6.7876C6.73787 6.875 6.69018 6.85525 6.65501 6.82008C6.61985 6.78492 6.6001 6.73723 6.6001 6.6875V1.835C6.6001 1.78527 6.61985 1.73758 6.65501 1.70242C6.69018 1.66725 6.73787 1.6475 6.7876 1.6475H16.1626C16.2123 1.6475 16.26 1.66725 16.2952 1.70242C16.3303 1.73758 16.3501 1.78527 16.3501 1.835V6.6875Z" fill="#AE9300"/>
<path d="M9.9751 4.27246C9.9751 4.67029 10.1331 5.05182 10.4144 5.33312C10.6957 5.61443 11.0773 5.77246 11.4751 5.77246C11.8729 5.77246 12.2545 5.61443 12.5358 5.33312C12.8171 5.05182 12.9751 4.67029 12.9751 4.27246C12.9751 3.87464 12.8171 3.49311 12.5358 3.2118C12.2545 2.9305 11.8729 2.77246 11.4751 2.77246C11.0773 2.77246 10.6957 2.9305 10.4144 3.2118C10.1331 3.49311 9.9751 3.87464 9.9751 4.27246Z" fill="#AE9300"/>
<path d="M15.15 11.3975L12.5025 12.275C12.4769 12.2826 12.4535 12.296 12.4339 12.3143C12.4144 12.3325 12.3994 12.355 12.39 12.38C12.2695 12.6404 12.0769 12.8607 11.835 13.0149C11.593 13.1691 11.3119 13.2507 11.025 13.25H8.02504C7.92558 13.25 7.8302 13.2105 7.75987 13.1402C7.68955 13.0698 7.65004 12.9745 7.65004 12.875C7.65004 12.7755 7.68955 12.6802 7.75987 12.6098C7.8302 12.5395 7.92558 12.5 8.02504 12.5H11.025C11.224 12.5 11.4147 12.421 11.5554 12.2803C11.696 12.1397 11.775 11.9489 11.775 11.75C11.775 11.5511 11.696 11.3603 11.5554 11.2197C11.4147 11.079 11.224 11 11.025 11H8.40004C7.53805 10.328 6.49132 9.93552 5.40004 9.875H3.85504C3.3843 9.89286 2.92439 10.0213 2.51254 10.25L0.26254 11.3825C0.23295 11.3987 0.208275 11.4226 0.191115 11.4516C0.173956 11.4806 0.164948 11.5138 0.16504 11.5475V15.5975C0.165711 15.6311 0.175039 15.6639 0.19212 15.6928C0.209202 15.7217 0.233458 15.7457 0.26254 15.7625C0.291043 15.779 0.323377 15.7876 0.35629 15.7876C0.389203 15.7876 0.421536 15.779 0.45004 15.7625L2.86504 14.2625C2.95913 14.2036 3.06512 14.1663 3.17536 14.1534C3.2856 14.1404 3.39735 14.152 3.50254 14.1875C11.0025 16.7075 8.47504 16.715 16.905 12.455C16.9741 12.4279 17.0339 12.3817 17.0776 12.3218C17.1213 12.2619 17.147 12.1908 17.1517 12.1168C17.1565 12.0428 17.14 11.969 17.1043 11.9041C17.0686 11.8391 17.015 11.7856 16.95 11.75C16.706 11.5407 16.412 11.3982 16.0965 11.3364C15.781 11.2747 15.455 11.2957 15.15 11.3975Z" fill="#AE9300"/>
</svg>
