<svg width="18" height="14" viewBox="0 0 18 14" fill="none" xmlns="http://www.w3.org/2000/svg">
<path d="M15.2475 10.8024C14.4419 9.95601 13.4727 9.28213 12.3988 8.82167C11.3248 8.36121 10.1685 8.12378 9 8.12378C7.8315 8.12378 6.67519 8.36121 5.60124 8.82167C4.52729 9.28213 3.5581 9.95601 2.7525 10.8024C2.6667 10.8972 2.57118 10.9826 2.4675 11.0574C2.41005 11.1012 2.36618 11.1604 2.34096 11.2281C2.31574 11.2957 2.31021 11.3692 2.325 11.4399C2.51737 12.1505 2.95311 12.771 3.55621 13.1932C4.1593 13.6153 4.89148 13.8124 5.625 13.7499H12.375C13.1085 13.8124 13.8407 13.6153 14.4438 13.1932C15.0469 12.771 15.4826 12.1505 15.675 11.4399C15.6898 11.3692 15.6843 11.2957 15.659 11.2281C15.6338 11.1604 15.5899 11.1012 15.5325 11.0574C15.4304 10.9806 15.3351 10.8953 15.2475 10.8024Z" fill="#AE9300"/>
<path d="M9.28498 6.83499C9.31751 6.88629 9.36158 6.92927 9.41366 6.96052C9.46575 6.99177 9.52441 7.01043 9.58498 7.01499C10.3191 7.05934 11.0461 7.18511 11.7525 7.38999C11.8383 7.41437 11.9299 7.40738 12.011 7.37027C12.0921 7.33316 12.1574 7.26835 12.195 7.18749L14.445 2.43999C14.4806 2.36155 14.4881 2.27325 14.4662 2.18994C14.4443 2.10662 14.3945 2.03337 14.325 1.98249C13.7018 1.5249 13.0209 1.15167 12.3 0.872494C12.2122 0.83684 12.1141 0.836437 12.0261 0.871371C11.938 0.906305 11.8669 0.973877 11.8275 1.05999L9.26998 6.48249C9.2446 6.5383 9.23273 6.59929 9.23534 6.66054C9.23794 6.72178 9.25495 6.78155 9.28498 6.83499Z" fill="#AE9300"/>
<path d="M4.1325 8.14751C4.16465 8.16912 4.20251 8.18065 4.24125 8.18065C4.27998 8.18065 4.31784 8.16912 4.35 8.14751C5.34323 7.60397 6.42498 7.24085 7.545 7.07501C7.60657 7.06753 7.66516 7.04426 7.71509 7.00746C7.76503 6.97067 7.80461 6.9216 7.83 6.86501L10.665 0.865013C10.6893 0.812065 10.7018 0.754507 10.7018 0.696263C10.7018 0.638019 10.6893 0.58046 10.665 0.527512C10.6373 0.475492 10.5978 0.430727 10.5496 0.396848C10.5013 0.362968 10.4458 0.340927 10.3875 0.332512C9.55576 0.203855 8.7102 0.191234 7.875 0.295013C7.81154 0.302696 7.75118 0.3268 7.69988 0.364943C7.64859 0.403087 7.60812 0.453951 7.5825 0.512512L4.0875 7.93001C4.07197 7.96654 4.06796 8.00693 4.076 8.0458C4.08405 8.08466 4.10375 8.12015 4.1325 8.14751Z" fill="#AE9300"/>
<path d="M15.8175 3.37743C15.7774 3.32836 15.7251 3.29073 15.6659 3.26835C15.6066 3.24596 15.5425 3.23961 15.48 3.24993C15.4189 3.25876 15.3609 3.28254 15.3111 3.31918C15.2614 3.35581 15.2215 3.40416 15.195 3.45993L13.26 7.56243C13.2203 7.65139 13.2161 7.75214 13.2481 7.84412C13.2802 7.93611 13.3461 8.0124 13.4325 8.05743C14.4115 8.55114 15.2992 9.20804 16.0575 9.99993C16.2133 10.1608 16.4131 10.2722 16.6318 10.3202C16.8506 10.3682 17.0786 10.3507 17.2875 10.2699C17.494 10.1897 17.672 10.0499 17.7988 9.86826C17.9257 9.68664 17.9957 9.47142 18 9.24993C18.008 7.09265 17.2325 5.00583 15.8175 3.37743Z" fill="#AE9300"/>
<path d="M6.045 0.864893C6.01942 0.838298 5.98656 0.819843 5.95054 0.811838C5.91452 0.803833 5.87694 0.806635 5.8425 0.819893C4.1261 1.46294 2.64695 2.61471 1.60288 4.12118C0.558803 5.62765 -0.000419023 7.41699 2.35571e-07 9.24989C0.00110614 9.48098 0.0738238 9.70604 0.20814 9.89408C0.342457 10.0821 0.531766 10.2239 0.75 10.2999C0.908935 10.3633 1.08046 10.3889 1.25099 10.3746C1.42152 10.3603 1.58637 10.3065 1.7325 10.2174C1.79851 10.1829 1.85125 10.1275 1.8825 10.0599C2.25 9.20489 5.25 2.76239 6.075 1.07489C6.0908 1.04073 6.09638 1.00272 6.09105 0.965456C6.08573 0.928193 6.06974 0.893266 6.045 0.864893Z" fill="#AE9300"/>
</svg>
