<svg width="18" height="18" viewBox="0 0 18 18" fill="none" xmlns="http://www.w3.org/2000/svg">
<path d="M12.9375 15.1125C12.9872 15.1125 13.0349 15.1322 13.0701 15.1674C13.1052 15.2025 13.125 15.2502 13.125 15.3V17.175C13.125 17.3739 13.204 17.5646 13.3447 17.7053C13.4853 17.8459 13.6761 17.925 13.875 17.925H15.375C15.5739 17.925 15.7647 17.8459 15.9053 17.7053C16.046 17.5646 16.125 17.3739 16.125 17.175V15.285C16.1259 15.2404 16.142 15.1975 16.1707 15.1634C16.1993 15.1293 16.2388 15.106 16.2825 15.0975C16.4949 15.0541 16.6857 14.9385 16.8224 14.7703C16.9592 14.6021 17.0334 14.3917 17.0325 14.175V10.05C17.0308 9.64807 16.9122 9.25536 16.6912 8.91975C16.4701 8.58413 16.1561 8.32013 15.7875 8.15996C15.7563 8.14847 15.7291 8.12819 15.7091 8.10158C15.6891 8.07497 15.6773 8.04315 15.675 8.00996L15.435 5.55746C15.435 4.19996 14.115 3.37496 12.435 2.94746C12.4037 2.93911 12.3749 2.92307 12.3513 2.90081C12.3278 2.87855 12.3101 2.85076 12.3 2.81996L11.6925 0.82496C11.6147 0.604921 11.4704 0.414523 11.2796 0.280145C11.0888 0.145766 10.8609 0.0740598 10.6275 0.0749595H7.3725C7.14014 0.0745113 6.91341 0.146508 6.72387 0.280931C6.53434 0.415355 6.39142 0.605518 6.315 0.82496L5.6925 2.81996C5.68329 2.85048 5.66579 2.87786 5.64196 2.89904C5.61813 2.92022 5.58889 2.93439 5.5575 2.93996C3.855 3.36746 2.5575 4.16996 2.5575 5.48996L2.3175 8.00996C2.31434 8.04289 2.30217 8.0743 2.28232 8.10076C2.26248 8.12723 2.23572 8.14771 2.205 8.15996C1.83163 8.31592 1.51237 8.57827 1.287 8.91433C1.06162 9.25039 0.940078 9.64533 0.9375 10.05V14.175C0.9375 14.2981 0.961749 14.42 1.00886 14.5337C1.05598 14.6475 1.12503 14.7508 1.21209 14.8379C1.29914 14.9249 1.40249 14.994 1.51623 15.0411C1.62998 15.0882 1.75189 15.1125 1.875 15.1125V17.175C1.875 17.3739 1.95402 17.5646 2.09467 17.7053C2.23532 17.8459 2.42609 17.925 2.625 17.925H4.125C4.32391 17.925 4.51468 17.8459 4.65533 17.7053C4.79598 17.5646 4.875 17.3739 4.875 17.175V15.3C4.875 15.2502 4.89475 15.2025 4.92992 15.1674C4.96508 15.1322 5.01277 15.1125 5.0625 15.1125H12.9375ZM7.6125 1.70996C7.62386 1.67101 7.64754 1.6368 7.68 1.61246C7.71246 1.58812 7.75193 1.57496 7.7925 1.57496H10.215C10.2553 1.57611 10.2942 1.58971 10.3264 1.61388C10.3587 1.63805 10.3826 1.67162 10.395 1.70996L10.5975 2.37746C10.6119 2.40391 10.6195 2.43357 10.6195 2.46371C10.6195 2.49385 10.6119 2.52351 10.5975 2.54996C10.5788 2.57517 10.5535 2.59478 10.5244 2.60668C10.4953 2.61857 10.4635 2.6223 10.4325 2.61746C9.9675 2.57996 9.495 2.55746 9.03 2.55746C8.565 2.55746 8.1 2.55746 7.6275 2.61746C7.59667 2.61954 7.56577 2.61454 7.53717 2.60284C7.50857 2.59114 7.48303 2.57305 7.4625 2.54996C7.44806 2.52351 7.44049 2.49385 7.44049 2.46371C7.44049 2.43357 7.44806 2.40391 7.4625 2.37746L7.6125 1.70996ZM3.75 12.3C3.5275 12.3 3.30999 12.234 3.12498 12.1104C2.93998 11.9867 2.79578 11.811 2.71064 11.6055C2.62549 11.3999 2.60321 11.1737 2.64662 10.9555C2.69003 10.7373 2.79717 10.5368 2.9545 10.3795C3.11184 10.2221 3.31229 10.115 3.53052 10.0716C3.74875 10.0282 3.97495 10.0504 4.18052 10.1356C4.38609 10.2207 4.56179 10.3649 4.6854 10.5499C4.80902 10.7349 4.875 10.9525 4.875 11.175C4.875 11.4733 4.75647 11.7595 4.5455 11.9705C4.33452 12.1814 4.04837 12.3 3.75 12.3ZM11.25 13.425C11.25 13.4747 11.2302 13.5224 11.1951 13.5575C11.1599 13.5927 11.1122 13.6125 11.0625 13.6125H6.9375C6.88777 13.6125 6.84008 13.5927 6.80492 13.5575C6.76975 13.5224 6.75 13.4747 6.75 13.425V12.855C6.75 12.5475 7.6275 12.105 9 12.105C9.59951 12.0913 10.1959 12.1957 10.755 12.4125C10.875 12.465 11.25 12.6525 11.25 12.855V13.425ZM9 7.04996C7.31536 7.03665 5.64509 7.3605 4.0875 8.00246C4.05856 8.01757 4.0264 8.02547 3.99375 8.02547C3.9611 8.02547 3.92894 8.01757 3.9 8.00246C3.87402 7.98405 3.85339 7.95907 3.84022 7.93009C3.82704 7.9011 3.82179 7.86914 3.825 7.83746L4.035 5.58746C4.035 4.88246 6.075 4.08746 9 4.08746C10.2475 4.06701 11.4904 4.2442 12.6825 4.61246C13.485 4.88996 13.965 5.25746 13.965 5.66246L14.175 7.84496C14.179 7.87671 14.1742 7.90896 14.1609 7.9381C14.1477 7.96724 14.1266 7.99212 14.1 8.00996C14.0736 8.02835 14.0422 8.03821 14.01 8.03821C13.9778 8.03821 13.9464 8.02835 13.92 8.00996C12.3603 7.36542 10.6876 7.03903 9 7.04996ZM14.25 12.3C14.0275 12.3 13.81 12.234 13.625 12.1104C13.44 11.9867 13.2958 11.811 13.2106 11.6055C13.1255 11.3999 13.1032 11.1737 13.1466 10.9555C13.19 10.7373 13.2972 10.5368 13.4545 10.3795C13.6118 10.2221 13.8123 10.115 14.0305 10.0716C14.2488 10.0282 14.475 10.0504 14.6805 10.1356C14.8861 10.2207 15.0618 10.3649 15.1854 10.5499C15.309 10.7349 15.375 10.9525 15.375 11.175C15.375 11.4733 15.2565 11.7595 15.0455 11.9705C14.8345 12.1814 14.5484 12.3 14.25 12.3Z" fill="#AE9300"/>
</svg>
