<svg width="18" height="18" viewBox="0 0 18 18" fill="none" xmlns="http://www.w3.org/2000/svg">
<path d="M16.875 9.66009H1.12501C1.06929 9.65945 1.01412 9.67123 0.963524 9.69459C0.912927 9.71794 0.868171 9.75227 0.83251 9.7951C0.798604 9.8394 0.774403 9.89034 0.761481 9.94461C0.748559 9.99888 0.747206 10.0553 0.75751 10.1101L2.13751 16.3576C2.20344 16.5963 2.34835 16.8057 2.54859 16.9514C2.74883 17.0972 2.99257 17.1707 3.24001 17.1601H14.76C15.0074 17.1707 15.2512 17.0972 15.4514 16.9514C15.6517 16.8057 15.7966 16.5963 15.8625 16.3576L17.25 10.1101C17.2603 10.0553 17.259 9.99888 17.246 9.94461C17.2331 9.89034 17.2089 9.8394 17.175 9.7951C17.1386 9.75127 17.0926 9.71633 17.0406 9.69294C16.9886 9.66955 16.932 9.65832 16.875 9.66009ZM13.3125 11.9101V14.9101C13.3125 15.0593 13.2532 15.2024 13.1478 15.3078C13.0423 15.4133 12.8992 15.4726 12.75 15.4726C12.6008 15.4726 12.4578 15.4133 12.3523 15.3078C12.2468 15.2024 12.1875 15.0593 12.1875 14.9101V11.9101C12.1875 11.7609 12.2468 11.6178 12.3523 11.5123C12.4578 11.4069 12.6008 11.3476 12.75 11.3476C12.8992 11.3476 13.0423 11.4069 13.1478 11.5123C13.2532 11.6178 13.3125 11.7609 13.3125 11.9101ZM9.56251 11.9101V14.9101C9.56251 15.0593 9.50325 15.2024 9.39776 15.3078C9.29227 15.4133 9.14919 15.4726 9.00001 15.4726C8.85083 15.4726 8.70775 15.4133 8.60226 15.3078C8.49677 15.2024 8.43751 15.0593 8.43751 14.9101V11.9101C8.43751 11.7609 8.49677 11.6178 8.60226 11.5123C8.70775 11.4069 8.85083 11.3476 9.00001 11.3476C9.14919 11.3476 9.29227 11.4069 9.39776 11.5123C9.50325 11.6178 9.56251 11.7609 9.56251 11.9101ZM6.18751 11.9101V14.9101C6.18751 15.0593 6.12825 15.2024 6.02276 15.3078C5.91727 15.4133 5.77419 15.4726 5.62501 15.4726C5.47582 15.4726 5.33275 15.4133 5.22726 15.3078C5.12177 15.2024 5.06251 15.0593 5.06251 14.9101V11.9101C5.06251 11.7609 5.12177 11.6178 5.22726 11.5123C5.33275 11.4069 5.47582 11.3476 5.62501 11.3476C5.77419 11.3476 5.91727 11.4069 6.02276 11.5123C6.12825 11.6178 6.18751 11.7609 6.18751 11.9101Z" fill="#AE9300"/>
<path d="M16.875 5.91005H15.75C15.7228 5.90982 15.6959 5.90366 15.6713 5.89201C15.6467 5.88035 15.6249 5.86347 15.6075 5.84255L11.5875 1.17005C11.4254 0.981081 11.1948 0.864254 10.9466 0.845265C10.6983 0.826277 10.4527 0.906684 10.2638 1.0688C10.0748 1.23091 9.95796 1.46145 9.93897 1.7097C9.91998 1.95795 10.0004 2.20358 10.1625 2.39255L12.9075 5.59505C12.9269 5.62526 12.9372 5.6604 12.9372 5.6963C12.9372 5.73219 12.9269 5.76734 12.9075 5.79755C12.8929 5.83109 12.8687 5.85961 12.8381 5.8796C12.8074 5.89959 12.7716 5.91018 12.735 5.91005H5.25C5.21341 5.91018 5.17757 5.89959 5.14692 5.8796C5.11627 5.85961 5.09214 5.83109 5.0775 5.79755C5.05812 5.76734 5.04781 5.73219 5.04781 5.6963C5.04781 5.6604 5.05812 5.62526 5.0775 5.59505L7.8225 2.39255C7.98461 2.20358 8.06502 1.95795 8.04603 1.7097C8.02704 1.46145 7.91022 1.23091 7.72125 1.0688C7.53228 0.906685 7.28666 0.826277 7.03841 0.845265C6.79015 0.864254 6.55961 0.981081 6.3975 1.17005L2.4075 5.84255C2.3885 5.86551 2.3643 5.8836 2.33691 5.89534C2.30952 5.90708 2.27973 5.91212 2.25 5.91005H1.125C0.826631 5.91005 0.540483 6.02857 0.329505 6.23955C0.118526 6.45053 0 6.73668 0 7.03505L0 7.78505C0 8.08342 0.118526 8.36957 0.329505 8.58054C0.540483 8.79152 0.826631 8.91005 1.125 8.91005H16.875C17.1734 8.91005 17.4595 8.79152 17.6705 8.58054C17.8815 8.36957 18 8.08342 18 7.78505V7.03505C18 6.73668 17.8815 6.45053 17.6705 6.23955C17.4595 6.02857 17.1734 5.91005 16.875 5.91005Z" fill="#AE9300"/>
</svg>
