<svg width="18" height="18" viewBox="0 0 18 18" fill="none" xmlns="http://www.w3.org/2000/svg">
<path fill-rule="evenodd" clip-rule="evenodd" d="M2.14516 8.91626C2.13778 9.04008 2.15533 9.19027 2.19044 9.49064L2.47217 11.901C2.59931 12.9888 3.18059 13.9721 4.07237 14.6079C4.72942 15.0763 5.51627 15.3281 6.32322 15.3281H8.86422C9.6712 15.3281 10.458 15.0763 11.1151 14.6079C11.68 14.2051 12.1203 13.6629 12.3995 13.043H13.9219C15.3781 13.043 16.5586 11.8625 16.5586 10.4062C16.5586 8.95001 15.3781 7.76953 13.9219 7.76953H12.3196C12.1869 7.69605 12.0406 7.64318 11.8847 7.61548C11.7626 7.59375 11.6113 7.59375 11.3089 7.59375H3.87852C3.57609 7.59375 3.42487 7.59375 3.30275 7.61548C2.66257 7.72931 2.18389 8.26713 2.14516 8.91626ZM13.0338 8.82422C13.0376 8.85459 13.0404 8.88532 13.0423 8.91626C13.0496 9.04008 13.0321 9.19027 12.997 9.49057L12.7153 11.901C12.7119 11.9301 12.7081 11.9592 12.7041 11.9883H13.9219C14.7956 11.9883 15.5039 11.28 15.5039 10.4062C15.5039 9.53255 14.7956 8.82422 13.9219 8.82422H13.0338Z" fill="#AE9300"/>
<path fill-rule="evenodd" clip-rule="evenodd" d="M7.96676 1.59586C8.17271 1.8018 8.17271 2.1357 7.96676 2.34164C7.78437 2.52402 7.78437 2.81973 7.96676 3.00211C8.56104 3.59638 8.56104 4.55987 7.96676 5.15414C7.76081 5.36007 7.42691 5.36007 7.22097 5.15414C7.01503 4.9482 7.01503 4.6143 7.22097 4.40836C7.40335 4.22598 7.40335 3.93027 7.22097 3.74789C6.6267 3.15362 6.6267 2.19013 7.22097 1.59586C7.42691 1.38992 7.76081 1.38992 7.96676 1.59586Z" fill="#AE9300"/>
<path fill-rule="evenodd" clip-rule="evenodd" d="M4.80257 2.65055C5.00851 2.85649 5.00851 3.19039 4.80257 3.39632L4.72092 3.47797C4.54989 3.64901 4.53065 3.91977 4.67578 4.11328C5.13582 4.72668 5.07482 5.58501 4.53266 6.12718L4.45101 6.20882C4.24507 6.41476 3.91117 6.41476 3.70523 6.20882C3.49929 6.00289 3.49929 5.66899 3.70523 5.46305L3.78688 5.3814C3.95791 5.21037 3.97715 4.9396 3.83203 4.74609C3.37198 4.13269 3.43298 3.27436 3.97515 2.73219L4.05679 2.65055C4.26273 2.44461 4.59663 2.44461 4.80257 2.65055Z" fill="#AE9300"/>
<path fill-rule="evenodd" clip-rule="evenodd" d="M11.4822 2.65055C11.6882 2.85649 11.6882 3.19039 11.4822 3.39632L11.4006 3.47797C11.2296 3.64901 11.2103 3.91977 11.3555 4.11328C11.8155 4.72668 11.7545 5.58501 11.2123 6.12718L11.1307 6.20882C10.9247 6.41476 10.5909 6.41476 10.3849 6.20882C10.179 6.00289 10.179 5.66899 10.3849 5.46305L10.4666 5.3814C10.6376 5.21037 10.6568 4.9396 10.5117 4.74609C10.0517 4.13269 10.1127 3.27436 10.6549 2.73219L10.7365 2.65055C10.9424 2.44461 11.2763 2.44461 11.4822 2.65055Z" fill="#AE9300"/>
</svg>
