<svg width="18" height="18" viewBox="0 0 18 18" fill="none" xmlns="http://www.w3.org/2000/svg">
<path d="M5.25 9C5.44891 9 5.63968 8.92098 5.78033 8.78033C5.92098 8.63968 6 8.44891 6 8.25C6 8.05109 5.92098 7.86032 5.78033 7.71967C5.63968 7.57902 5.44891 7.5 5.25 7.5H2.25C2.05109 7.5 1.86032 7.57902 1.71967 7.71967C1.57902 7.86032 1.5 8.05109 1.5 8.25C1.5 8.44891 1.57902 8.63968 1.71967 8.78033C1.86032 8.92098 2.05109 9 2.25 9H2.4375C2.48723 9 2.53492 9.01975 2.57008 9.05492C2.60525 9.09008 2.625 9.13777 2.625 9.1875V12.1875C2.625 12.2372 2.60525 12.2849 2.57008 12.3201C2.53492 12.3552 2.48723 12.375 2.4375 12.375H2.25C2.05109 12.375 1.86032 12.454 1.71967 12.5947C1.57902 12.7353 1.5 12.9261 1.5 13.125C1.5 13.3239 1.57902 13.5147 1.71967 13.6553C1.86032 13.796 2.05109 13.875 2.25 13.875H5.25C5.44891 13.875 5.63968 13.796 5.78033 13.6553C5.92098 13.5147 6 13.3239 6 13.125C6 12.9261 5.92098 12.7353 5.78033 12.5947C5.63968 12.454 5.44891 12.375 5.25 12.375H5.0625C5.01277 12.375 4.96508 12.3552 4.92992 12.3201C4.89475 12.2849 4.875 12.2372 4.875 12.1875V9.1875C4.875 9.13777 4.89475 9.09008 4.92992 9.05492C4.96508 9.01975 5.01277 9 5.0625 9H5.25Z" fill="#AE9300"/>
<path d="M10.5 9C10.6989 9 10.8897 8.92098 11.0303 8.78033C11.171 8.63968 11.25 8.44891 11.25 8.25C11.25 8.05109 11.171 7.86032 11.0303 7.71967C10.8897 7.57902 10.6989 7.5 10.5 7.5H7.5C7.30109 7.5 7.11032 7.57902 6.96967 7.71967C6.82902 7.86032 6.75 8.05109 6.75 8.25C6.75 8.44891 6.82902 8.63968 6.96967 8.78033C7.11032 8.92098 7.30109 9 7.5 9H7.6875C7.73723 9 7.78492 9.01975 7.82008 9.05492C7.85525 9.09008 7.875 9.13777 7.875 9.1875V12.1875C7.875 12.2372 7.85525 12.2849 7.82008 12.3201C7.78492 12.3552 7.73723 12.375 7.6875 12.375H7.5C7.30109 12.375 7.11032 12.454 6.96967 12.5947C6.82902 12.7353 6.75 12.9261 6.75 13.125C6.75 13.3239 6.82902 13.5147 6.96967 13.6553C7.11032 13.796 7.30109 13.875 7.5 13.875H10.5C10.6989 13.875 10.8897 13.796 11.0303 13.6553C11.171 13.5147 11.25 13.3239 11.25 13.125C11.25 12.9261 11.171 12.7353 11.0303 12.5947C10.8897 12.454 10.6989 12.375 10.5 12.375H10.3125C10.2628 12.375 10.2151 12.3552 10.1799 12.3201C10.1448 12.2849 10.125 12.2372 10.125 12.1875V9.1875C10.125 9.13777 10.1448 9.09008 10.1799 9.05492C10.2151 9.01975 10.2628 9 10.3125 9H10.5Z" fill="#AE9300"/>
<path d="M16.125 9C16.3239 9 16.5147 8.92098 16.6553 8.78033C16.796 8.63968 16.875 8.44891 16.875 8.25C16.875 8.05109 16.796 7.86032 16.6553 7.71967C16.5147 7.57902 16.3239 7.5 16.125 7.5H13.125C12.9261 7.5 12.7353 7.57902 12.5947 7.71967C12.454 7.86032 12.375 8.05109 12.375 8.25C12.375 8.44891 12.454 8.63968 12.5947 8.78033C12.7353 8.92098 12.9261 9 13.125 9H13.3125C13.3622 9 13.4099 9.01975 13.4451 9.05492C13.4802 9.09008 13.5 9.13777 13.5 9.1875V12.1875C13.5 12.2372 13.4802 12.2849 13.4451 12.3201C13.4099 12.3552 13.3622 12.375 13.3125 12.375H13.125C12.9261 12.375 12.7353 12.454 12.5947 12.5947C12.454 12.7353 12.375 12.9261 12.375 13.125C12.375 13.3239 12.454 13.5147 12.5947 13.6553C12.7353 13.796 12.9261 13.875 13.125 13.875H16.125C16.3239 13.875 16.5147 13.796 16.6553 13.6553C16.796 13.5147 16.875 13.3239 16.875 13.125C16.875 12.9261 16.796 12.7353 16.6553 12.5947C16.5147 12.454 16.3239 12.375 16.125 12.375H15.9375C15.8878 12.375 15.8401 12.3552 15.8049 12.3201C15.7698 12.2849 15.75 12.2372 15.75 12.1875V9.1875C15.75 9.13777 15.7698 9.09008 15.8049 9.05492C15.8401 9.01975 15.8878 9 15.9375 9H16.125Z" fill="#AE9300"/>
<path d="M1.83756 6.37512H16.2376C16.3835 6.37838 16.5273 6.33896 16.6512 6.26169C16.7751 6.18442 16.8738 6.07265 16.9351 5.94012C16.9948 5.80006 17.0043 5.64365 16.962 5.49739C16.9196 5.35114 16.8279 5.22403 16.7026 5.13762L9.85506 0.150117C9.72146 0.0585346 9.56328 0.00952148 9.40131 0.00952148C9.23934 0.00952148 9.08115 0.0585346 8.94756 0.150117L1.40256 5.12262C1.2708 5.20358 1.17209 5.32871 1.12401 5.47569C1.07593 5.62266 1.08162 5.78194 1.14006 5.92512C1.19911 6.06046 1.2968 6.17536 1.42088 6.25541C1.54496 6.33546 1.68991 6.3771 1.83756 6.37512Z" fill="#AE9300"/>
<path d="M17.9401 17.415L16.4401 15.165C16.4048 15.114 16.3578 15.0724 16.3029 15.0437C16.248 15.0149 16.187 14.9999 16.1251 15H1.87506C1.81312 14.9999 1.75209 15.0149 1.69722 15.0437C1.64235 15.0724 1.59528 15.114 1.56006 15.165L0.0600598 17.415C0.0217242 17.4717 -0.000359853 17.5378 -0.00379879 17.6062C-0.00723772 17.6745 0.00809962 17.7425 0.040551 17.8028C0.0730023 17.8631 0.12133 17.9133 0.180296 17.9481C0.239261 17.9828 0.306616 18.0008 0.37506 18H17.6251C17.6935 18.0008 17.7609 17.9828 17.8198 17.9481C17.8788 17.9133 17.9271 17.8631 17.9596 17.8028C17.992 17.7425 18.0074 17.6745 18.0039 17.6062C18.0005 17.5378 17.9784 17.4717 17.9401 17.415Z" fill="#AE9300"/>
</svg>
