<svg width="18" height="18" viewBox="0 0 18 18" fill="none" xmlns="http://www.w3.org/2000/svg">
<path d="M5.75262 6.90747C5.75073 6.88479 5.74438 6.8627 5.73392 6.84249C5.72345 6.82227 5.70909 6.80432 5.69166 6.78968C5.67423 6.77504 5.65408 6.764 5.63236 6.75718C5.61064 6.75037 5.58779 6.74792 5.56512 6.74997C4.45748 6.76184 3.378 7.10047 2.46205 7.72341C1.5461 8.34635 0.834467 9.22586 0.416392 10.2516C-0.00168353 11.2774 -0.107588 12.4038 0.111961 13.4895C0.331509 14.5753 0.866736 15.572 1.65052 16.3548C2.4343 17.1375 3.43175 17.6714 4.51777 17.8895C5.60379 18.1076 6.73003 18.0002 7.75526 17.5808C8.78048 17.1614 9.65905 16.4486 10.2808 15.5318C10.9025 14.6151 11.2397 13.5351 11.2501 12.4275C11.2524 12.3841 11.2382 12.3415 11.2104 12.3081C11.1826 12.2747 11.1432 12.2531 11.1001 12.2475C9.77777 11.9924 8.56196 11.3476 7.60901 10.396C6.65607 9.44437 6.00956 8.22946 5.75262 6.90747ZM7.05012 10.6575C7.05012 10.8067 6.99086 10.9497 6.88537 11.0552C6.77988 11.1607 6.6368 11.22 6.48762 11.22H5.06262C4.96248 11.2219 4.86711 11.2631 4.79699 11.3346C4.72687 11.4061 4.6876 11.5023 4.68762 11.6025C4.68645 11.6779 4.70899 11.7517 4.75205 11.8136C4.79511 11.8755 4.85652 11.9223 4.92762 11.9475L6.36762 12.525C6.66247 12.645 6.91146 12.8558 7.07858 13.1268C7.2457 13.3978 7.32227 13.7149 7.29721 14.0322C7.27216 14.3496 7.14678 14.6508 6.93921 14.8922C6.73164 15.1336 6.45266 15.3027 6.14262 15.375C6.10168 15.3864 6.06559 15.4109 6.03987 15.4448C6.01414 15.4786 6.00019 15.52 6.00012 15.5625V15.75C6.00012 15.8992 5.94086 16.0422 5.83537 16.1477C5.72988 16.2532 5.5868 16.3125 5.43762 16.3125C5.28844 16.3125 5.14536 16.2532 5.03987 16.1477C4.93438 16.0422 4.87512 15.8992 4.87512 15.75V15.6225C4.87512 15.5727 4.85537 15.5251 4.8202 15.4899C4.78504 15.4547 4.73735 15.435 4.68762 15.435H4.38762C4.23844 15.435 4.09536 15.3757 3.98987 15.2702C3.88438 15.1647 3.82512 15.0217 3.82512 14.8725C3.82512 14.7233 3.88438 14.5802 3.98987 14.4747C4.09536 14.3692 4.23844 14.31 4.38762 14.31H5.81262C5.91208 14.31 6.00746 14.2705 6.07779 14.2001C6.14811 14.1298 6.18762 14.0344 6.18762 13.935C6.18934 13.8605 6.1679 13.7873 6.12625 13.7255C6.08461 13.6637 6.02481 13.6163 5.95512 13.59L4.50012 13.005C4.22221 12.8943 3.98374 12.703 3.81534 12.4558C3.64695 12.2086 3.55633 11.9166 3.55512 11.6175C3.54665 11.2707 3.6586 10.9318 3.87192 10.6583C4.08524 10.3848 4.38675 10.1937 4.72512 10.1175C4.76611 10.1088 4.80278 10.086 4.82879 10.0531C4.85481 10.0203 4.86854 9.97937 4.86762 9.93747V9.76497C4.86762 9.61579 4.92688 9.47272 5.03237 9.36723C5.13786 9.26174 5.28094 9.20247 5.43012 9.20247C5.5793 9.20247 5.72238 9.26174 5.82787 9.36723C5.93336 9.47272 5.99262 9.61579 5.99262 9.76497V9.88497C5.99262 9.9347 6.01237 9.98239 6.04754 10.0176C6.0827 10.0527 6.13039 10.0725 6.18012 10.0725H6.48012C6.55757 10.0724 6.63422 10.088 6.70541 10.1185C6.7766 10.149 6.84082 10.1937 6.89416 10.2499C6.9475 10.306 6.98884 10.3725 7.01565 10.4451C7.04247 10.5178 7.0542 10.5951 7.05012 10.6725V10.6575Z" fill="#AE9300"/>
<path d="M12.375 0C11.2625 0 10.1749 0.329901 9.24992 0.947983C8.32489 1.56607 7.60392 2.44457 7.17818 3.47241C6.75244 4.50024 6.64104 5.63124 6.85809 6.72238C7.07513 7.81353 7.61086 8.81581 8.39753 9.60248C9.1842 10.3891 10.1865 10.9249 11.2776 11.1419C12.3688 11.359 13.4998 11.2476 14.5276 10.8218C15.5554 10.3961 16.4339 9.67511 17.052 8.75008C17.6701 7.82506 18 6.73752 18 5.625C18 4.13316 17.4074 2.70242 16.3525 1.64752C15.2976 0.592632 13.8668 0 12.375 0ZM12.375 9.9075C12.2264 9.90556 12.0845 9.84567 11.9794 9.7406C11.8743 9.63553 11.8144 9.49358 11.8125 9.345V9C11.8125 8.95027 11.7927 8.90258 11.7576 8.86742C11.7224 8.83225 11.6747 8.8125 11.625 8.8125H11.0625C10.9133 8.8125 10.7702 8.75324 10.6648 8.64775C10.5593 8.54226 10.5 8.39918 10.5 8.25C10.5 8.10082 10.5593 7.95774 10.6648 7.85225C10.7702 7.74676 10.9133 7.6875 11.0625 7.6875H12.84C13.0031 7.6875 13.1595 7.62271 13.2749 7.50737C13.3902 7.39204 13.455 7.23561 13.455 7.0725C13.4551 6.95016 13.4178 6.83072 13.3481 6.73018C13.2784 6.62965 13.1796 6.55282 13.065 6.51L11.265 5.76C10.9418 5.6343 10.6642 5.4137 10.4687 5.12722C10.2733 4.84074 10.1691 4.5018 10.17 4.155C10.1714 3.73611 10.3239 3.33179 10.5994 3.01629C10.875 2.70078 11.2551 2.49528 11.67 2.4375C11.7123 2.42858 11.75 2.40472 11.7762 2.37029C11.8023 2.33586 11.8152 2.29316 11.8125 2.25V1.875C11.8125 1.72582 11.8718 1.58274 11.9773 1.47725C12.0827 1.37176 12.2258 1.3125 12.375 1.3125C12.5242 1.3125 12.6673 1.37176 12.7727 1.47725C12.8782 1.58274 12.9375 1.72582 12.9375 1.875V2.25C12.9375 2.29973 12.9573 2.34742 12.9924 2.38258C13.0276 2.41775 13.0753 2.4375 13.125 2.4375H13.6875C13.8367 2.4375 13.9798 2.49676 14.0852 2.60225C14.1907 2.70774 14.25 2.85082 14.25 3C14.25 3.14918 14.1907 3.29226 14.0852 3.39775C13.9798 3.50324 13.8367 3.5625 13.6875 3.5625H11.91C11.7469 3.5625 11.5905 3.62729 11.4751 3.74263C11.3598 3.85796 11.295 4.01439 11.295 4.1775C11.2949 4.29984 11.3322 4.41928 11.4019 4.51982C11.4716 4.62036 11.5704 4.69718 11.685 4.74L13.485 5.49C13.8082 5.6157 14.0858 5.8363 14.2813 6.12278C14.4767 6.40926 14.5809 6.7482 14.58 7.095C14.5786 7.51389 14.4261 7.91821 14.1506 8.23371C13.875 8.54922 13.4949 8.75472 13.08 8.8125C13.0363 8.81801 12.9961 8.83938 12.967 8.87256C12.938 8.90574 12.9222 8.94841 12.9225 8.9925V9.3675C12.9151 9.50961 12.8548 9.64381 12.7535 9.74374C12.6522 9.84366 12.5172 9.90207 12.375 9.9075Z" fill="#AE9300"/>
</svg>
