<svg width="16" height="18" viewBox="0 0 16 18" fill="none" xmlns="http://www.w3.org/2000/svg">
<path d="M8 0C6.11094 0.00198535 4.29982 0.75329 2.96406 2.08906C1.62829 3.42482 0.876985 5.23594 0.875 7.125C0.875 12 5.75 16.5 7.25 17.7375C7.45151 17.9073 7.70652 18.0004 7.97 18.0004C8.23348 18.0004 8.48849 17.9073 8.69 17.7375C10.25 16.5 15.125 12 15.125 7.125C15.123 5.23594 14.3717 3.42482 13.0359 2.08906C11.7002 0.75329 9.88906 0.00198535 8 0ZM13.115 6.84C13.173 6.88961 13.2145 6.95576 13.234 7.02959C13.2534 7.10342 13.2498 7.18142 13.2237 7.25317C13.1976 7.32492 13.1503 7.387 13.0879 7.4311C13.0256 7.47521 12.9513 7.49925 12.875 7.5H12.125C12.0255 7.5 11.9302 7.53951 11.8598 7.60983C11.7895 7.68016 11.75 7.77554 11.75 7.875V11.25C11.75 11.3495 11.7105 11.4448 11.6402 11.5152C11.5698 11.5855 11.4745 11.625 11.375 11.625H9.5C9.40054 11.625 9.30516 11.5855 9.23483 11.5152C9.16451 11.4448 9.125 11.3495 9.125 11.25V9.5625C9.125 9.26413 9.00647 8.97798 8.7955 8.767C8.58452 8.55603 8.29837 8.4375 8 8.4375C7.70163 8.4375 7.41548 8.55603 7.2045 8.767C6.99353 8.97798 6.875 9.26413 6.875 9.5625V11.25C6.875 11.3495 6.83549 11.4448 6.76517 11.5152C6.69484 11.5855 6.59946 11.625 6.5 11.625H4.625C4.52554 11.625 4.43016 11.5855 4.35984 11.5152C4.28951 11.4448 4.25 11.3495 4.25 11.25V7.875C4.25 7.77554 4.21049 7.68016 4.14016 7.60983C4.06984 7.53951 3.97446 7.5 3.875 7.5H3.125C3.04866 7.49925 2.97437 7.47521 2.91205 7.4311C2.84974 7.387 2.80237 7.32492 2.77628 7.25317C2.75019 7.18142 2.74662 7.10342 2.76605 7.02959C2.78547 6.95576 2.82697 6.88961 2.885 6.84L7.76 2.715C7.82672 2.65746 7.9119 2.62581 8 2.62581C8.0881 2.62581 8.17328 2.65746 8.24 2.715L13.115 6.84Z" fill="#AE9300"/>
</svg>
