<svg width="16" height="18" viewBox="0 0 16 18" fill="none" xmlns="http://www.w3.org/2000/svg">
<path d="M15.695 2.5125C15.6246 2.43018 15.5372 2.36408 15.4388 2.31877C15.3404 2.27345 15.2333 2.24999 15.125 2.25H8.37499C8.2685 2.25013 8.16326 2.27294 8.06627 2.31691C7.96928 2.36088 7.88277 2.425 7.81249 2.505C7.74203 2.58525 7.68953 2.67963 7.65848 2.78181C7.62744 2.88399 7.61858 2.99162 7.63249 3.0975L8.38249 8.7225C8.39529 8.82099 8.42737 8.916 8.47689 9.00209C8.52641 9.08818 8.5924 9.16368 8.6711 9.22427C8.7498 9.28486 8.83966 9.32936 8.93555 9.35522C9.03145 9.38108 9.1315 9.3878 9.22999 9.375C9.32848 9.3622 9.42348 9.33012 9.50958 9.2806C9.59567 9.23108 9.67117 9.16508 9.73176 9.08639C9.79235 9.00769 9.83685 8.91783 9.86271 8.82193C9.88857 8.72604 9.89529 8.62599 9.88249 8.5275L9.27499 3.96C9.27075 3.93438 9.27261 3.90813 9.28043 3.88336C9.28825 3.8586 9.3018 3.83604 9.31999 3.8175C9.33573 3.79839 9.3551 3.78258 9.37699 3.771C9.39887 3.75941 9.42283 3.75227 9.44749 3.75H14C14.0275 3.74846 14.0549 3.75384 14.0798 3.76563C14.1047 3.77742 14.1263 3.79525 14.1425 3.8175C14.1608 3.8375 14.1744 3.86138 14.1822 3.88735C14.1899 3.91332 14.1918 3.94072 14.1875 3.9675L13.37 8.895C13.3372 9.09391 13.3847 9.29772 13.5022 9.46158C13.6196 9.62544 13.7973 9.73593 13.9962 9.76875C14.0947 9.785 14.1955 9.78169 14.2927 9.75902C14.3899 9.73634 14.4817 9.69474 14.5628 9.63658C14.7267 9.51914 14.8372 9.34141 14.87 9.1425L15.875 3.1425C15.8946 3.03071 15.8886 2.91593 15.8574 2.8068C15.8262 2.69768 15.7707 2.59705 15.695 2.5125Z" fill="#AE9300"/>
<path d="M13.25 10.5001H8.74996C8.71506 10.5014 8.6806 10.492 8.65114 10.4733C8.62168 10.4545 8.5986 10.4273 8.58496 10.3951L7.86496 9.00011C7.83774 8.94337 7.79668 8.8944 7.74556 8.8577C7.69444 8.82101 7.63492 8.79776 7.57246 8.79011C7.50942 8.78285 7.44556 8.79139 7.38665 8.81496C7.32773 8.83852 7.2756 8.87638 7.23496 8.92511L5.82496 10.6576C5.7094 10.7812 5.55124 10.8562 5.38246 10.8676H4.63246C4.58195 10.8666 4.53175 10.8758 4.48488 10.8946C4.43801 10.9135 4.39544 10.9416 4.35972 10.9774C4.32399 11.0131 4.29585 11.0557 4.27699 11.1025C4.25813 11.1494 4.24894 11.1996 4.24996 11.2501V15.7501C4.24873 15.8085 4.26175 15.8664 4.28788 15.9186C4.31402 15.9709 4.35248 16.016 4.39996 16.0501C6.12496 17.3476 7.45996 18.0001 8.37496 18.0001H12.5375C12.864 18.0554 13.1993 17.9814 13.4722 17.7938C13.7452 17.6062 13.9345 17.3198 14 16.9951C14.3656 15.2232 14.6162 13.4294 14.75 11.6251C14.75 11.0626 14.2325 10.5001 13.25 10.5001Z" fill="#AE9300"/>
<path d="M2.6225 10.1251H0.3125C0.262772 10.1251 0.215081 10.1449 0.179918 10.1801C0.144754 10.2152 0.125 10.2629 0.125 10.3126V17.0626C0.125 17.1124 0.144754 17.1601 0.179918 17.1952C0.215081 17.2304 0.262772 17.2501 0.3125 17.2501H2.6225C2.68522 17.2575 2.7488 17.2516 2.80908 17.2328C2.86937 17.214 2.92502 17.1827 2.97242 17.1409C3.01982 17.0992 3.0579 17.048 3.08418 16.9905C3.11047 16.9331 3.12438 16.8708 3.125 16.8076V10.5676C3.12438 10.5045 3.11047 10.4422 3.08418 10.3848C3.0579 10.3273 3.01982 10.2761 2.97242 10.2343C2.92502 10.1926 2.86937 10.1613 2.80908 10.1425C2.7488 10.1237 2.68522 10.1178 2.6225 10.1251Z" fill="#AE9300"/>
<path d="M10.625 6.75C10.625 7.04837 10.7435 7.33452 10.9545 7.5455C11.1655 7.75647 11.4516 7.875 11.75 7.875C12.0484 7.875 12.3345 7.75647 12.5455 7.5455C12.7565 7.33452 12.875 7.04837 12.875 6.75C12.875 6.45163 12.7565 6.16548 12.5455 5.9545C12.3345 5.74353 12.0484 5.625 11.75 5.625C11.4516 5.625 11.1655 5.74353 10.9545 5.9545C10.7435 6.16548 10.625 6.45163 10.625 6.75Z" fill="#AE9300"/>
<path d="M6.50003 8.25006C6.60948 8.25147 6.71792 8.22891 6.81773 8.18395C6.91753 8.139 7.00629 8.07274 7.07776 7.98983C7.14923 7.90692 7.20169 7.80937 7.23145 7.70403C7.26121 7.59869 7.26755 7.48811 7.25003 7.38006L6.29753 1.71756C6.27906 1.66927 6.27906 1.61586 6.29753 1.56756C6.32041 1.53705 6.35205 1.51424 6.38824 1.50218C6.42442 1.49012 6.46342 1.48938 6.50003 1.50006H12.5C12.6989 1.50006 12.8897 1.42104 13.0304 1.28039C13.171 1.13974 13.25 0.948975 13.25 0.750062C13.25 0.55115 13.171 0.360385 13.0304 0.219732C12.8897 0.07908 12.6989 6.23795e-05 12.5 6.23795e-05H5.37503C5.26557 -0.00134931 5.15714 0.0212152 5.05733 0.0661716C4.95753 0.111128 4.86877 0.177387 4.7973 0.260295C4.72583 0.343204 4.67337 0.440753 4.64361 0.546093C4.61385 0.651433 4.60751 0.762011 4.62503 0.870062L5.75003 7.62006C5.77878 7.79753 5.87032 7.95877 6.00798 8.0744C6.14564 8.19004 6.32026 8.25238 6.50003 8.25006Z" fill="#AE9300"/>
</svg>
