<svg width="341" height="329" viewBox="0 0 341 329" fill="none" xmlns="http://www.w3.org/2000/svg">
<path d="M285.865 47.1438C285.1 46.3386 285.1 45.0503 285.905 44.2854C286.711 43.5204 287.959 43.5204 288.765 44.3256C292.51 48.2308 296.135 52.3372 299.518 56.5645C300.202 57.4502 300.082 58.6982 299.196 59.3826C298.833 59.6645 298.39 59.8255 297.947 59.8255C297.343 59.8255 296.779 59.584 296.376 59.0606C293.074 54.9541 289.57 50.9282 285.865 47.1438ZM325.495 115.303C325.736 116.189 326.542 116.752 327.428 116.752C327.629 116.752 327.79 116.712 327.992 116.672C329.079 116.35 329.683 115.263 329.361 114.176C327.83 108.982 326.058 103.789 324.045 98.7564C323.642 97.7096 322.474 97.2265 321.427 97.6291C320.38 98.0317 319.896 99.1992 320.299 100.246C322.273 105.158 324.004 110.23 325.495 115.303ZM313.694 85.7928C314.057 86.4772 314.741 86.8798 315.466 86.8798C315.789 86.8798 316.111 86.7993 316.393 86.6383C317.399 86.1149 317.762 84.9071 317.238 83.9409C314.741 79.15 312.003 74.3994 309.022 69.8501C308.418 68.9241 307.17 68.6423 306.244 69.2462C305.317 69.8501 305.035 71.0981 305.639 72.0241C308.579 76.4929 311.278 81.1227 313.694 85.7928ZM204.753 320.827C199.598 321.995 194.322 322.961 189.086 323.605C187.999 323.766 187.194 324.773 187.355 325.86C187.476 326.866 188.362 327.631 189.368 327.631C189.449 327.631 189.53 327.631 189.61 327.631C195.007 326.947 200.403 325.981 205.679 324.773C206.767 324.531 207.451 323.444 207.21 322.357C206.888 321.23 205.841 320.546 204.753 320.827ZM173.178 324.853C167.902 325.014 162.546 324.934 157.27 324.571C156.183 324.491 155.216 325.336 155.135 326.464C155.055 327.591 155.901 328.517 157.028 328.597C160.693 328.839 164.399 328.96 168.063 328.96C169.836 328.96 171.567 328.919 173.339 328.879C174.467 328.839 175.313 327.913 175.273 326.786C175.232 325.699 174.266 324.773 173.178 324.853ZM234.918 310.722C230.085 312.896 225.091 314.829 220.097 316.52C219.05 316.882 218.487 318.009 218.809 319.056C219.091 319.901 219.896 320.425 220.701 320.425C220.903 320.425 221.145 320.384 221.346 320.304C226.461 318.573 231.576 316.6 236.57 314.386C237.576 313.943 238.06 312.735 237.576 311.729C237.093 310.722 235.925 310.279 234.918 310.722ZM262.546 294.981C258.237 298.04 253.686 300.899 249.095 303.516C248.128 304.079 247.806 305.287 248.329 306.253C248.692 306.898 249.377 307.26 250.102 307.26C250.424 307.26 250.786 307.179 251.108 306.978C255.82 304.281 260.452 301.342 264.882 298.242C265.808 297.598 266.01 296.35 265.366 295.424C264.681 294.578 263.432 294.337 262.546 294.981ZM286.63 274.207C282.965 278.032 279.099 281.735 275.071 285.158C274.226 285.882 274.145 287.17 274.87 288.016C275.273 288.459 275.837 288.7 276.401 288.7C276.884 288.7 277.327 288.539 277.729 288.217C281.837 284.674 285.825 280.89 289.57 276.985C290.335 276.18 290.295 274.891 289.49 274.126C288.684 273.361 287.395 273.402 286.63 274.207ZM12.7669 213.818C12.4045 212.771 11.2769 212.207 10.2298 212.57C9.18263 212.932 8.61875 214.059 8.98122 215.106C10.713 220.259 12.7669 225.332 14.982 230.284C15.3042 231.009 16.0694 231.451 16.8346 231.451C17.1166 231.451 17.3985 231.411 17.6804 231.29C18.6873 230.848 19.1303 229.64 18.6873 228.633C16.4722 223.802 14.4987 218.85 12.7669 213.818ZM19.4121 87.1214C18.4053 86.6383 17.197 87.0409 16.7137 88.0474C14.3375 92.9188 12.2031 97.9914 10.3505 103.064C9.94775 104.111 10.5116 105.278 11.5587 105.641C11.8004 105.721 12.0421 105.762 12.2435 105.762C13.0489 105.762 13.8543 105.238 14.1362 104.433C15.9485 99.481 18.0428 94.5291 20.3787 89.7785C20.862 88.8123 20.419 87.6045 19.4121 87.1214ZM3.82603 136.922C3.94685 136.922 4.02752 136.963 4.14834 136.963C5.11492 136.963 5.96063 136.238 6.12173 135.272C6.92721 130.038 8.05492 124.804 9.38396 119.691C9.66588 118.604 9.02145 117.517 7.93406 117.235C6.84666 116.954 5.75922 117.598 5.4773 118.685C4.10799 123.919 2.98039 129.313 2.13464 134.668C1.97354 135.715 2.73863 136.761 3.82603 136.922ZM25.8963 242.805C25.3325 241.838 24.1241 241.516 23.1575 242.08C22.191 242.644 21.8689 243.851 22.4327 244.818C25.1311 249.488 28.1113 254.117 31.2527 258.546C31.6554 259.11 32.2595 259.391 32.9039 259.391C33.3067 259.391 33.7094 259.271 34.0718 259.029C34.9981 258.385 35.1996 257.137 34.5552 256.211C31.4541 251.863 28.5544 247.354 25.8963 242.805ZM5.55793 182.858C5.39683 181.771 4.38994 180.966 3.30255 181.127C2.21515 181.288 1.40975 182.295 1.57084 183.382C2.29577 188.736 3.26227 194.171 4.51077 199.445C4.71214 200.371 5.55785 201.015 6.48415 201.015C6.64525 201.015 6.80638 201.015 6.92721 200.975C8.0146 200.733 8.69934 199.646 8.41742 198.559C7.2092 193.366 6.24259 188.092 5.55793 182.858ZM2.25538 169.09C3.38305 169.049 4.22893 168.123 4.18865 166.996C4.1081 165.023 4.06771 163.051 4.06771 161.078C4.06771 157.736 4.18861 154.395 4.34971 151.094C4.43026 149.966 3.58442 149.04 2.45675 148.96C1.32908 148.92 0.402858 149.725 0.32231 150.852C0.12094 154.234 0 157.696 0 161.078C0 163.091 0.040392 165.144 0.12094 167.157C0.161214 168.244 1.04724 169.09 2.13464 169.09C2.21519 169.09 2.25538 169.09 2.25538 169.09ZM44.382 268.691C43.6571 267.846 42.3683 267.765 41.5225 268.49C40.6768 269.215 40.5962 270.503 41.3212 271.349C44.9055 275.455 48.6913 279.4 52.6382 283.104C53.0409 283.467 53.5242 283.668 54.0075 283.668C54.531 283.668 55.0949 283.467 55.4574 283.024C56.2226 282.219 56.1822 280.93 55.3767 280.165C51.591 276.542 47.8859 272.677 44.382 268.691ZM80.548 299.651C76.0776 296.833 71.6878 293.733 67.4993 290.512C66.6132 289.828 65.3647 289.989 64.6801 290.874C63.9954 291.76 64.1565 293.008 65.0425 293.693C69.3115 297.034 73.8223 300.174 78.3732 303.073C78.6954 303.274 79.0982 303.395 79.4607 303.395C80.1454 303.395 80.7896 303.073 81.1521 302.469C81.7562 301.503 81.4743 300.255 80.548 299.651ZM89.2472 129.354C88.2404 128.629 86.8308 128.87 86.1059 129.917L73.3793 148.155L68.2243 145.417C67.1369 144.853 65.7676 145.256 65.2038 146.343C64.6399 147.43 65.0426 148.799 66.13 149.362L73.0572 153.026C73.3794 153.187 73.7417 153.268 74.1041 153.268C74.8291 153.268 75.5138 152.946 75.9568 152.301L89.8513 132.454C90.536 131.447 90.2943 130.078 89.2472 129.354ZM138.1 129.354C137.093 128.629 135.683 128.87 134.958 129.917L122.232 148.155L117.077 145.417C115.989 144.853 114.62 145.256 114.056 146.343C113.492 147.43 113.895 148.799 114.982 149.362L121.909 153.026C122.232 153.187 122.594 153.268 122.957 153.268C123.682 153.268 124.366 152.946 124.809 152.301L138.704 132.454C139.388 131.447 139.107 130.078 138.1 129.354ZM183.408 129.354C182.401 128.629 180.991 128.87 180.266 129.917L167.54 148.155L162.385 145.417C161.297 144.853 159.928 145.256 159.364 146.343C158.8 147.43 159.203 148.799 160.29 149.362L167.218 153.026C167.54 153.187 167.902 153.268 168.265 153.268C168.99 153.268 169.674 152.946 170.118 152.301L184.012 132.454C184.697 131.447 184.455 130.078 183.408 129.354ZM225.092 87.1214C224.085 86.3967 222.675 86.6785 221.95 87.685L209.223 105.923L204.068 103.185C202.981 102.621 201.612 103.024 201.048 104.111C200.484 105.198 200.887 106.567 201.974 107.13L208.901 110.794C209.223 110.955 209.586 111.035 209.948 111.035C210.673 111.035 211.358 110.713 211.801 110.069L225.696 90.2214C226.34 89.2149 226.098 87.8058 225.092 87.1214ZM160.29 106.003L167.218 109.667C167.54 109.828 167.902 109.908 168.265 109.908C168.99 109.908 169.674 109.586 170.118 108.942L184.012 89.0941C184.737 88.0876 184.495 86.6785 183.448 85.9539C182.441 85.2292 181.032 85.4708 180.307 86.5175L167.58 104.755L162.425 102.017C161.338 101.454 159.968 101.856 159.405 102.943C158.8 104.071 159.203 105.439 160.29 106.003ZM139.429 171.988C138.422 171.264 137.012 171.505 136.287 172.552L123.561 190.789L118.406 188.052C117.318 187.488 115.949 187.891 115.385 188.978C114.821 190.065 115.224 191.434 116.311 191.997L123.238 195.661C123.561 195.822 123.923 195.902 124.286 195.902C125.011 195.902 125.695 195.58 126.138 194.936L140.033 175.088C140.717 174.082 140.476 172.713 139.429 171.988ZM69.3519 191.997L76.2791 195.661C76.6013 195.822 76.9636 195.902 77.3261 195.902C78.051 195.902 78.7357 195.58 79.1787 194.936L93.0732 175.088C93.7982 174.082 93.5566 172.673 92.5094 171.948C91.5026 171.223 90.0931 171.465 89.3681 172.512L76.6415 190.749L71.4863 188.012C70.3989 187.448 69.0296 187.85 68.4658 188.937C67.8214 190.065 68.2242 191.434 69.3519 191.997ZM299.236 144.692C298.189 144.048 296.819 144.33 296.135 145.377L273.903 180.443H250.585C249.336 180.443 248.329 181.449 248.329 182.697C248.329 183.945 249.336 184.952 250.585 184.952H275.152C275.917 184.952 276.642 184.549 277.045 183.905L299.961 147.792C300.605 146.746 300.283 145.377 299.236 144.692ZM340.557 183.744C340.074 217.32 313.855 245.582 279.784 247.998C278.575 248.079 277.367 248.119 276.159 248.159C275.837 248.32 275.514 248.401 275.152 248.401C274.79 248.401 274.427 248.32 274.145 248.159C256.586 247.918 240.476 240.631 228.756 228.835H67.0161C50.7857 228.835 37.5758 215.629 37.5758 199.405V43.5204C37.5758 29.3491 47.6844 17.4726 61.0554 14.6947V9.29993C61.0554 4.18698 65.2037 0 70.3587 0C75.4735 0 79.6621 4.14672 79.6621 9.29993V14.0908H113.371V9.29993C113.371 4.18698 117.52 0 122.675 0C127.789 0 131.978 4.14672 131.978 9.29993V14.0908H165.687V9.29993C165.687 4.18698 169.835 0 174.991 0C180.105 0 184.294 4.14672 184.294 9.29993V14.0908H218.003V9.29993C218.003 4.18698 222.152 0 227.307 0C232.462 0 236.61 4.14672 236.61 9.29993V14.6947C249.981 17.4323 260.09 29.3089 260.09 43.5204V119.128C263.553 118.322 267.097 117.759 270.682 117.477C271.89 117.396 273.098 117.356 274.306 117.316C274.628 117.155 274.951 117.074 275.313 117.074C275.676 117.074 275.998 117.155 276.32 117.316C291.745 117.517 306.405 123.073 318.205 133.299C331.415 144.733 339.349 160.635 340.597 178.067C340.678 179.275 340.718 180.483 340.758 181.691C340.919 181.973 341 182.335 341 182.697C340.839 183.1 340.718 183.422 340.557 183.744ZM66.9758 224.285H224.648C220.903 219.736 217.762 214.703 215.305 209.228H193.033H148.128C147.765 209.228 147.443 209.148 147.161 208.987H103.222H75.9971C65.1634 208.987 56.3435 200.17 56.3435 189.34V163.051V120.134C56.1824 119.852 56.1018 119.53 56.1018 119.168V92.8785C56.1018 81.9279 65.0426 72.9903 75.9971 72.9903H103.263H148.168C148.531 72.9903 148.853 73.0709 149.135 73.2319H193.074H220.339C231.173 73.2319 239.993 82.0487 239.993 92.8785V119.168V127.542C244.785 124.482 249.981 122.067 255.418 120.376V61.6774H42.0462V199.365C42.0462 213.133 53.2423 224.285 66.9758 224.285ZM65.0828 9.29993V35.1062C65.0828 38.0049 67.459 40.3399 70.3184 40.3399C73.2182 40.3399 75.5541 37.9646 75.5541 35.1062V9.29993C75.5541 6.40125 73.1779 4.0662 70.3184 4.0662C67.459 4.02594 65.0828 6.40125 65.0828 9.29993ZM61.0554 35.1062V19.3245C50.1814 21.9816 42.0462 31.8049 42.0462 43.5204V57.2086H255.418V43.5204C255.418 31.8049 247.323 22.0219 236.408 19.3245V35.1062C236.408 40.2192 232.26 44.4061 227.105 44.4061C221.95 44.4061 217.802 40.2594 217.802 35.1062V18.5999H184.092V35.1062C184.092 40.2192 179.944 44.4061 174.789 44.4061C169.674 44.4061 165.486 40.2594 165.486 35.1062V18.5999H131.777V35.1062C131.777 40.2192 127.628 44.4061 122.473 44.4061C117.358 44.4061 113.17 40.2594 113.17 35.1062V18.5999H79.6218V35.1062C79.6218 40.2192 75.4735 44.4061 70.3184 44.4061C65.2036 44.3659 61.0554 40.2192 61.0554 35.1062ZM117.359 9.29993V35.1062C117.359 38.0049 119.735 40.3399 122.594 40.3399C125.494 40.3399 127.83 37.9646 127.83 35.1062V9.29993C127.83 6.40125 125.454 4.0662 122.594 4.0662C119.694 4.02594 117.359 6.40125 117.359 9.29993ZM169.634 9.29993V35.1062C169.634 38.0049 172.01 40.3399 174.87 40.3399C177.769 40.3399 180.105 37.9646 180.105 35.1062V9.29993C180.105 6.40125 177.729 4.0662 174.87 4.0662C171.97 4.02594 169.634 6.40125 169.634 9.29993ZM221.87 9.29993V35.1062C221.87 38.0049 224.246 40.3399 227.105 40.3399C230.005 40.3399 232.341 37.9646 232.341 35.1062V9.29993C232.341 6.40125 229.965 4.0662 227.105 4.0662C224.246 4.02594 221.87 6.40125 221.87 9.29993ZM212.043 165.305H195.329V204.759H213.573C211.6 199.284 210.351 193.447 209.908 187.367C209.828 186.16 209.787 184.952 209.747 183.744C209.586 183.422 209.505 183.1 209.505 182.738C209.505 182.375 209.586 182.053 209.747 181.731C209.787 176.135 210.593 170.619 212.043 165.305ZM101.209 165.104H60.3306V189.38C60.3306 197.996 67.3382 205.001 75.9568 205.001H101.209V165.104ZM195.087 117.155H235.965V92.8785C235.965 84.263 228.958 77.2578 220.339 77.2578H195.087V117.155ZM60.3306 161.078H101.209V121.181H60.3306V161.078ZM105.276 161.078H146.154V121.181H105.276V161.078ZM150.182 160.836H191.06V121.181H150.182V160.836ZM191.06 77.2578H150.423V117.155H191.06V77.2578ZM145.913 77.4994H105.478V116.913H145.913V77.4994ZM101.007 77.4994H75.9971C67.4993 77.4994 60.5722 84.424 60.5722 92.9188V116.954H101.007V77.4994ZM105.276 205.001H146.154V165.104H105.276V205.001ZM150.383 204.759H190.818V165.305H150.383V204.759ZM213.452 160.836C216.151 153.227 220.259 146.142 225.696 139.861C228.797 136.278 232.26 133.098 235.925 130.32V121.181H195.047V160.836H213.452ZM279.502 243.972C311.076 241.718 335.402 215.911 336.53 184.992H325.293C324.045 184.992 323.038 183.986 323.038 182.738C323.038 181.489 324.045 180.483 325.293 180.483H336.53C336.489 179.799 336.489 179.074 336.449 178.39C334.194 146.826 308.378 122.509 277.448 121.382V131.407C277.448 132.655 276.441 133.661 275.192 133.661C273.944 133.661 272.937 132.655 272.937 131.407V121.382C272.252 121.422 271.527 121.463 270.843 121.503C239.268 123.757 214.942 149.564 213.815 180.483H224.326C225.575 180.483 226.582 181.489 226.582 182.738C226.582 183.986 225.575 184.992 224.326 184.992H213.815C213.855 185.676 213.855 186.401 213.895 187.086C216.151 218.649 241.966 242.966 272.897 244.093V235.196C272.897 233.947 273.904 232.941 275.152 232.941C276.401 232.941 277.407 233.947 277.407 235.196V244.093C278.092 244.012 278.777 244.012 279.502 243.972ZM185.784 248.723C186.469 249.407 186.71 250.494 186.348 251.42L164.519 308.87C164.076 310.038 163.07 310.924 161.821 311.165C160.573 311.407 159.324 311.044 158.438 310.159L147.604 299.248C147.081 298.725 146.275 298.725 145.752 299.248L116.392 328.356C115.989 328.758 115.385 329 114.821 329C114.217 329 113.653 328.758 113.251 328.356L105.558 320.586C104.672 319.7 104.672 318.291 105.558 317.405L134.918 288.298C135.441 287.774 135.441 286.969 134.918 286.446L124.084 275.535C123.198 274.65 122.836 273.361 123.118 272.154C123.4 270.906 124.245 269.939 125.453 269.497L183.086 248.159C184.052 247.797 185.099 247.998 185.784 248.723ZM142.651 296.028C144.906 293.773 148.611 293.773 150.866 296.068L160.814 306.092L180.669 253.836L128.233 273.241L138.18 283.265C140.435 285.52 140.435 289.224 138.14 291.478L110.391 318.975L114.942 323.565L142.651 296.028Z" fill="#333333"/>
</svg>
