<svg width="390" height="430" viewBox="0 0 390 430" fill="none" xmlns="http://www.w3.org/2000/svg">
<path d="M18.716 98.9859C18.2005 98.9859 17.7365 98.8312 17.2725 98.5219C16.0868 97.7487 15.7775 96.099 16.5508 94.9133C20.4172 89.1395 24.6445 83.5204 29.0265 78.2105C29.9544 77.1279 31.5526 76.9733 32.6352 77.8497C33.7178 78.7776 33.8724 80.3757 32.996 81.4583C28.6656 86.665 24.593 92.1811 20.7781 97.8002C20.3657 98.625 19.5408 98.9859 18.716 98.9859ZM-14.0715 233.381C-14.1746 231.938 -15.4634 230.907 -16.8553 231.01C-18.2988 231.113 -19.3298 232.402 -19.2267 233.794C-18.7112 239.825 -17.9379 245.857 -16.9068 251.785C-16.7006 253.023 -15.618 253.951 -14.3808 253.951C-14.2261 253.951 -14.0715 253.951 -13.9168 253.899C-12.5249 253.641 -11.5969 252.301 -11.8031 250.909C-12.7826 245.187 -13.5559 239.31 -14.0715 233.381ZM-17.4224 215.596C-16.0305 215.596 -14.8447 214.462 -14.8447 213.018C-14.7932 206.214 -14.3808 199.409 -13.659 192.656C-13.5044 191.212 -14.5354 189.975 -15.9273 189.82C-17.3193 189.666 -18.6081 190.697 -18.7627 192.088C-19.536 198.996 -19.9484 206.007 -20 212.967C-20 214.41 -18.8658 215.596 -17.4224 215.596ZM-7.16341 149.61C-8.55533 149.197 -9.94725 149.971 -10.4112 151.311C-12.4733 157.91 -14.2261 164.714 -15.618 171.519C-15.9273 172.911 -14.9994 174.303 -13.6075 174.561C-13.4528 174.612 -13.2466 174.612 -13.092 174.612C-11.9062 174.612 -10.8236 173.788 -10.5659 172.55C-9.22551 165.9 -7.47272 159.25 -5.51373 152.806C-5.04975 151.466 -5.82304 150.022 -7.16341 149.61ZM9.28186 111.822C8.0446 111.152 6.44647 111.616 5.77629 112.853C2.47692 118.988 -0.564678 125.277 -3.24541 131.67C-3.81249 132.959 -3.19386 134.505 -1.85349 135.072C-1.54418 135.227 -1.18331 135.278 -0.873995 135.278C0.157057 135.278 1.085 134.66 1.49743 133.68C4.12661 127.442 7.0651 121.256 10.3129 115.328C10.9831 114.039 10.5191 112.492 9.28186 111.822ZM192.654 5.16162C199.459 5.11007 206.316 5.36783 213.069 5.9349C213.121 5.9349 213.224 5.9349 213.275 5.9349C214.616 5.9349 215.75 4.90386 215.853 3.56352C215.956 2.12007 214.925 0.882825 213.482 0.779721C206.574 0.212651 199.562 -0.0451078 192.603 0.00644398C191.159 0.00644398 190.025 1.19214 190.077 2.63559C190.077 4.02748 191.262 5.16162 192.654 5.16162ZM151.67 9.59508C151.825 9.59508 152.031 9.59508 152.186 9.54353C158.784 8.15163 165.589 7.12059 172.343 6.39887C173.735 6.24421 174.766 4.95542 174.611 3.56352C174.456 2.12007 173.219 1.08903 171.776 1.29524C164.868 2.01696 157.908 3.1511 151.155 4.543C149.763 4.85231 148.886 6.19266 149.144 7.58456C149.402 8.77025 150.484 9.59508 151.67 9.59508ZM233.278 8.66715C239.928 9.90439 246.63 11.4509 253.126 13.3584C253.383 13.4099 253.59 13.4615 253.847 13.4615C254.981 13.4615 256.012 12.7397 256.322 11.6056C256.734 10.2137 255.909 8.8218 254.569 8.40939C247.919 6.50197 241.062 4.90386 234.257 3.61507C232.865 3.35731 231.525 4.28524 231.267 5.67714C230.958 7.06904 231.886 8.40939 233.278 8.66715ZM407.165 204.255C405.721 204.306 404.639 205.492 404.69 206.935C404.793 209.616 404.845 212.348 404.845 215.029C404.845 219.102 404.742 223.226 404.484 227.298C404.381 228.742 405.463 229.927 406.907 230.031C406.958 230.031 407.01 230.031 407.062 230.031C408.402 230.031 409.536 228.948 409.639 227.608C409.897 223.432 410 219.205 410 215.029C410 212.297 409.948 209.461 409.845 206.729C409.794 205.286 408.66 204.1 407.165 204.255ZM376.646 109.915C377.109 110.74 377.986 111.204 378.862 111.204C379.326 111.204 379.739 111.101 380.151 110.843C381.388 110.121 381.801 108.523 381.079 107.337C377.883 101.77 374.377 96.3052 370.665 91.0985C369.841 89.9128 368.242 89.655 367.057 90.4799C365.871 91.3047 365.613 92.9028 366.438 94.0885C370.098 99.1921 373.501 104.502 376.646 109.915ZM398.452 145.279C396.184 138.732 393.606 132.185 390.719 125.896C390.152 124.607 388.606 124.04 387.317 124.607C386.028 125.226 385.461 126.721 386.028 128.01C388.863 134.196 391.39 140.537 393.555 146.929C393.916 148.012 394.947 148.682 395.978 148.682C396.236 148.682 396.545 148.63 396.803 148.527C398.194 148.115 398.916 146.62 398.452 145.279ZM405.257 245.393C403.865 245.187 402.525 246.115 402.319 247.558C401.288 254.26 399.896 260.962 398.194 267.509C397.834 268.901 398.658 270.293 400.05 270.653C400.257 270.705 400.463 270.756 400.721 270.756C401.855 270.756 402.937 269.983 403.195 268.798C404.948 262.096 406.34 255.188 407.422 248.331C407.629 246.94 406.701 245.651 405.257 245.393ZM402.937 186.572C403.092 187.861 404.226 188.789 405.515 188.789C405.618 188.789 405.721 188.789 405.876 188.789C407.268 188.583 408.299 187.294 408.093 185.902C407.165 179.046 405.876 172.138 404.278 165.385C403.968 163.993 402.576 163.116 401.185 163.477C399.793 163.787 398.916 165.178 399.277 166.57C400.772 173.117 402.009 179.871 402.937 186.572ZM91.0958 397.368C85.2188 394.017 79.4449 390.305 73.9288 386.439C72.7946 385.614 71.145 385.872 70.3201 387.057C69.4953 388.243 69.753 389.841 70.9387 390.666C76.6095 394.687 82.5381 398.45 88.5697 401.904C88.9821 402.11 89.3946 402.265 89.8585 402.265C90.7349 402.265 91.6113 401.801 92.1269 400.976C92.7455 399.636 92.3331 398.089 91.0958 397.368ZM43.1004 359.786C42.1209 358.755 40.4712 358.704 39.4401 359.683C38.4091 360.663 38.3575 362.312 39.337 363.344C44.1314 368.344 49.2351 373.19 54.4419 377.726C54.9059 378.139 55.5245 378.345 56.1432 378.345C56.8649 378.345 57.5866 378.036 58.1021 377.469C59.0301 376.386 58.927 374.736 57.8444 373.809C52.7407 369.427 47.7916 364.684 43.1004 359.786ZM208.636 424.432C201.882 424.845 195.026 424.999 188.272 424.742C186.88 424.639 185.643 425.824 185.592 427.216C185.54 428.66 186.674 429.845 188.066 429.897C190.386 429.948 192.654 430 194.974 430C199.614 430 204.305 429.845 208.945 429.536C210.388 429.433 211.471 428.196 211.368 426.804C211.265 425.412 210.028 424.329 208.636 424.432ZM128.265 414.019C121.821 411.854 115.48 409.379 109.294 406.595C108.005 406.028 106.458 406.595 105.891 407.884C105.324 409.173 105.891 410.72 107.18 411.287C113.521 414.122 120.068 416.7 126.616 418.865C126.873 418.968 127.183 419.019 127.44 419.019C128.523 419.019 129.502 418.349 129.863 417.267C130.327 415.926 129.606 414.483 128.265 414.019ZM248.073 418.092C241.784 419.741 235.34 421.082 228.896 422.113C227.504 422.319 226.524 423.659 226.782 425.051C226.988 426.34 228.071 427.216 229.308 427.216C229.463 427.216 229.566 427.216 229.721 427.165C236.319 426.082 242.918 424.69 249.362 423.041C250.754 422.68 251.579 421.288 251.218 419.896C250.857 418.556 249.414 417.731 248.073 418.092ZM167.909 423.144C161.207 422.267 154.454 421.082 147.855 419.535C146.463 419.226 145.071 420.102 144.762 421.494C144.453 422.886 145.329 424.278 146.721 424.587C153.474 426.134 160.382 427.371 167.29 428.247C167.394 428.247 167.497 428.247 167.6 428.247C168.889 428.247 169.971 427.319 170.177 425.979C170.332 424.587 169.353 423.298 167.909 423.144ZM50.1115 67.4878C50.1115 39.856 72.5884 17.431 100.169 17.431C127.801 17.431 150.227 39.9075 150.227 67.4878C150.227 95.068 127.75 117.545 100.169 117.545C72.5369 117.545 50.1115 95.068 50.1115 67.4878ZM55.2668 67.4878C55.2668 92.2326 75.4238 112.389 100.169 112.389C124.914 112.389 145.071 92.2326 145.071 67.4878C145.071 42.7429 124.914 22.5861 100.169 22.5861C75.4238 22.5861 55.2668 42.6913 55.2668 67.4878ZM83.2083 78.2621C83.2083 76.664 84.4971 75.3752 86.0952 75.3752C87.6933 75.3752 88.9821 76.664 88.9821 78.2621C88.9821 82.2316 92.5393 85.634 97.2821 86.6135V69.3952C89.8585 68.261 84.1878 62.745 84.1878 56.1464C84.1878 49.4962 89.8585 43.9801 97.2821 42.9491V41.7119C97.2821 40.1137 98.5709 38.825 100.169 38.825C101.767 38.825 103.056 40.1137 103.056 41.7119V43.0006C110.273 44.2379 115.738 49.6508 115.738 56.1464C115.738 57.7445 114.449 59.0333 112.851 59.0333C111.253 59.0333 109.964 57.7445 109.964 56.1464C109.964 52.7439 107.077 49.857 103.056 48.826V64.0853C111.047 65.271 117.13 71.1479 117.13 78.2621C117.13 85.3762 111.047 91.2531 103.056 92.4388V93.3152C103.056 94.9133 101.767 96.2021 100.169 96.2021C98.5709 96.2021 97.2821 94.9133 97.2821 93.3152V92.4388C89.343 91.2531 83.2083 85.3762 83.2083 78.2621ZM103.056 69.9107V86.5619C107.85 85.5824 111.356 82.2316 111.356 78.2105C111.356 74.2926 107.85 70.8902 103.056 69.9107ZM97.2821 63.5698V48.7744C93.0548 49.6508 89.9101 52.6408 89.9101 56.1464C89.9101 59.6003 93.1064 62.5903 97.2821 63.5698ZM89.1368 190.542C89.6008 191.315 89.6008 192.346 89.1368 193.119C88.6728 193.893 87.848 194.408 86.92 194.408H61.4015C60.4736 194.408 59.6487 193.893 59.1848 193.119C58.7208 192.346 58.7208 191.315 59.1848 190.542L71.9182 168.426C72.3822 167.653 73.2071 167.137 74.135 167.137C75.063 167.137 75.8878 167.653 76.3518 168.426L89.1368 190.542ZM82.435 189.253L74.135 174.87L65.8866 189.253H82.435ZM113.934 177.912H104.345C102.747 177.912 101.458 179.201 101.458 180.799C101.458 182.397 102.747 183.686 104.345 183.686H113.934C115.532 183.686 116.821 182.397 116.821 180.799C116.769 179.201 115.532 177.912 113.934 177.912ZM133.678 174.355H223.122C224.72 174.355 226.009 173.066 226.009 171.468C226.009 169.87 224.72 168.581 223.122 168.581H133.678C132.08 168.581 130.791 169.87 130.791 171.468C130.791 173.066 132.08 174.355 133.678 174.355ZM133.678 191.573H171.518C173.116 191.573 174.405 190.284 174.405 188.686C174.405 187.088 173.116 185.799 171.518 185.799H133.678C132.08 185.799 130.791 187.088 130.791 188.686C130.791 190.284 132.08 191.573 133.678 191.573ZM89.1368 259.364C89.6008 260.137 89.6008 261.168 89.1368 261.941C88.6728 262.714 87.848 263.23 86.92 263.23H61.4015C60.4736 263.23 59.6487 262.714 59.1848 261.941C58.7208 261.168 58.7208 260.137 59.1848 259.364L71.9182 237.248C72.3822 236.475 73.2071 235.959 74.135 235.959C75.063 235.959 75.8878 236.475 76.3518 237.248L89.1368 259.364ZM82.435 258.075L74.135 243.692L65.835 258.075H82.435ZM113.934 246.733H104.345C102.747 246.733 101.458 248.022 101.458 249.62C101.458 251.218 102.747 252.507 104.345 252.507H113.934C115.532 252.507 116.821 251.218 116.821 249.62C116.769 248.022 115.532 246.733 113.934 246.733ZM133.678 243.176H223.122C224.72 243.176 226.009 241.887 226.009 240.289C226.009 238.691 224.72 237.402 223.122 237.402H133.678C132.08 237.402 130.791 238.691 130.791 240.289C130.791 241.887 132.08 243.176 133.678 243.176ZM171.518 254.621H133.678C132.08 254.621 130.791 255.91 130.791 257.508C130.791 259.106 132.08 260.395 133.678 260.395H171.518C173.116 260.395 174.405 259.106 174.405 257.508C174.405 255.91 173.116 254.621 171.518 254.621ZM89.1368 295.501C89.6008 296.275 89.6008 297.306 89.1368 298.079C88.6728 298.852 87.848 299.368 86.92 299.368H61.4015C60.4736 299.368 59.6487 298.852 59.1848 298.079C58.7208 297.306 58.7208 296.275 59.1848 295.501L71.9182 273.386C72.3822 272.612 73.2071 272.097 74.135 272.097C75.063 272.097 75.8878 272.612 76.3518 273.386L89.1368 295.501ZM82.435 294.213L74.135 279.83L65.835 294.213H82.435ZM113.934 282.871H104.345C102.747 282.871 101.458 284.16 101.458 285.758C101.458 287.356 102.747 288.645 104.345 288.645H113.934C115.532 288.645 116.821 287.356 116.821 285.758C116.769 284.16 115.532 282.871 113.934 282.871ZM130.791 293.594C130.791 295.192 132.08 296.481 133.678 296.481H171.518C173.116 296.481 174.405 295.192 174.405 293.594C174.405 291.996 173.116 290.707 171.518 290.707H133.678C132.08 290.759 130.791 292.047 130.791 293.594ZM89.1368 203.584C89.6008 204.358 89.6008 205.389 89.1368 206.162L76.4033 228.226C75.9393 229 75.1145 229.515 74.1866 229.515C73.2586 229.515 72.4338 229 71.9698 228.226L59.2363 206.111C58.7723 205.337 58.7723 204.306 59.2363 203.533C59.7003 202.76 60.5251 202.244 61.4531 202.244H86.9716C87.848 202.296 88.6728 202.76 89.1368 203.584ZM74.135 221.782L82.435 207.399H65.835L74.135 221.782ZM113.934 213.018H104.345C102.747 213.018 101.458 214.307 101.458 215.905C101.458 217.503 102.747 218.792 104.345 218.792H113.934C115.532 218.792 116.821 217.503 116.821 215.905C116.769 214.307 115.532 213.018 113.934 213.018ZM133.678 228.123H205.955C207.553 228.123 208.842 226.834 208.842 225.236C208.842 223.638 207.553 222.349 205.955 222.349H133.678C132.08 222.349 130.791 223.638 130.791 225.236C130.791 226.834 132.08 228.123 133.678 228.123ZM133.678 210.905H223.122C224.72 210.905 226.009 209.616 226.009 208.018C226.009 206.42 224.72 205.131 223.122 205.131H133.678C132.08 205.131 130.791 206.42 130.791 208.018C130.791 209.616 132.08 210.905 133.678 210.905ZM200.078 26.1948H291.532C292.976 26.1948 294.11 27.3289 294.11 28.7723V42.0727H323.598C325.196 42.0727 326.485 43.3615 326.485 44.9596C326.485 46.5577 325.196 47.8465 323.598 47.8465H294.11V61.1469C294.11 62.5903 292.976 63.7245 291.532 63.7245H200.078C198.634 63.7245 197.5 62.5903 197.5 61.1469V47.8465H173.838C172.24 47.8465 170.951 46.5577 170.951 44.9596C170.951 43.3615 172.24 42.0727 173.838 42.0727H197.5V28.7723C197.5 27.3289 198.634 26.1948 200.078 26.1948ZM288.955 31.3499H202.656V58.5693H288.955V31.3499ZM291.532 73.8286H326.64C328.083 73.8286 329.217 74.9628 329.217 76.4062V89.7066H351.385C352.983 89.7066 354.272 90.9954 354.272 92.5935C354.272 94.1916 352.983 95.4804 351.385 95.4804H329.217V108.781C329.217 110.224 328.083 111.358 326.64 111.358H291.532C290.089 111.358 288.955 110.224 288.955 108.781V95.4804H270.293C268.694 95.4804 267.406 94.1916 267.406 92.5935C267.406 90.9954 268.694 89.7066 270.293 89.7066H288.955V76.4062C288.955 74.9628 290.14 73.8286 291.532 73.8286ZM324.113 78.9838H294.161V106.203H324.113V78.9838ZM375.511 285.139C400.927 313.648 398.865 357.209 370.82 382.315C360.922 391.182 348.756 396.852 335.661 398.811C332.362 399.275 329.011 399.533 325.712 399.533C321.587 399.533 317.515 399.172 313.391 398.399C313.391 398.399 313.391 398.399 313.339 398.399C278.953 391.749 239.67 367.725 236.319 365.663C228.019 361.9 224.101 352.157 227.607 343.754C229.308 339.681 232.556 336.537 236.629 334.887C240.753 333.237 245.341 333.289 249.465 335.093L275.293 346.331L258.281 327.309H163.115V343.754H172.394C182.602 343.754 190.902 352.054 190.902 362.261C190.902 363.704 189.767 364.993 188.324 364.993H97.0759C95.6324 364.993 94.4983 363.859 94.4983 362.416C94.4983 352.054 102.798 343.754 113.006 343.754H122.285V327.309H20.3657C18.9222 327.309 17.788 326.175 17.788 324.731V142.341C17.788 140.898 18.9222 139.763 20.3657 139.763H264.983C266.426 139.763 267.56 140.898 267.56 142.341V287.82L274.365 295.45C274.829 291.583 276.634 287.923 279.727 285.139C283.026 282.201 287.253 280.758 291.635 280.964C293.337 281.067 294.986 281.428 296.584 281.995C296.378 277.2 298.234 272.355 302.049 268.901C305.297 265.962 309.524 264.519 313.958 264.725C315.659 264.828 317.309 265.189 318.907 265.756C318.7 260.962 320.556 256.116 324.371 252.662C327.671 249.723 331.898 248.228 336.28 248.486C340.765 248.744 344.889 250.754 347.931 254.105L375.511 285.139ZM334.836 393.14C346.848 391.388 357.983 386.181 367.005 378.087C392.678 355.095 394.586 315.143 371.233 289.006L343.6 258.075C341.59 255.858 338.857 254.518 335.919 254.363C333.084 254.208 330.3 255.136 328.135 257.044C323.701 261.013 323.34 267.973 327.413 272.509L329.99 275.448C331.073 276.633 330.97 278.438 329.784 279.52C329.217 280.036 328.547 280.242 327.877 280.242C327.103 280.242 326.279 279.933 325.712 279.263L323.134 276.376L321.278 274.314C319.267 272.097 316.535 270.757 313.597 270.602C310.761 270.447 307.977 271.427 305.812 273.283C301.379 277.252 301.018 284.212 305.091 288.748L309.524 293.749C310.607 294.934 310.504 296.739 309.318 297.821C308.751 298.337 308.081 298.543 307.41 298.543C306.637 298.543 305.812 298.234 305.245 297.563L300.812 292.614L298.956 290.552C296.945 288.336 294.213 286.995 291.274 286.841C288.388 286.686 285.655 287.665 283.49 289.521C279.056 293.491 278.696 300.45 282.768 305.038L287.408 310.245C288.491 311.431 288.388 313.235 287.202 314.318C286.016 315.4 284.212 315.297 283.129 314.112L239.206 264.931C237.196 262.714 234.464 261.374 231.525 261.219C228.69 261.065 225.906 262.044 223.741 263.9C219.307 267.87 218.946 274.829 223.019 279.417L288.336 352.569C289.212 353.6 289.315 355.095 288.542 356.178C287.769 357.26 286.325 357.673 285.088 357.106L247.249 340.609C244.516 339.423 241.578 339.372 238.845 340.455C236.165 341.537 234.103 343.548 232.968 346.228C230.649 351.796 233.278 358.291 238.845 360.714C238.949 360.766 239.103 360.818 239.206 360.921C239.619 361.178 280.294 386.387 314.422 392.986C321.227 394.017 328.083 394.12 334.836 393.14ZM172.394 348.909H113.006C106.458 348.909 101.045 353.652 99.8597 359.838H185.489C184.354 353.652 178.89 348.909 172.394 348.909ZM157.341 343.754V327.309H128.007V343.754H157.341ZM253.744 322.205L248.64 316.483H31.5526C29.9544 316.483 28.6656 315.194 28.6656 313.596V153.528C28.6656 151.93 29.9544 150.641 31.5526 150.641H253.847C255.445 150.641 256.734 151.93 256.734 153.528V275.654L262.457 282.046V144.919H22.9433V322.154H253.744V322.205ZM214.616 273.54C214.1 268.385 215.905 263.127 219.977 259.467C223.225 256.528 227.504 255.085 231.886 255.291C236.371 255.549 240.495 257.559 243.537 260.91L250.96 269.21V156.415H34.4395V310.709H243.537L218.792 283.077C217.76 281.892 216.936 280.654 216.265 279.314H133.678C132.08 279.314 130.791 278.025 130.791 276.427C130.791 274.829 132.08 273.54 133.678 273.54H214.616Z" fill="#333333" fill-opacity="0.05"/>
</svg>
