<svg width="390" height="577" viewBox="0 0 390 577" fill="none" xmlns="http://www.w3.org/2000/svg">
<path d="M450.212 398.264C446.993 406.475 443.315 414.686 439.307 422.503C438.716 423.619 437.599 424.276 436.351 424.276C435.826 424.276 435.366 424.145 434.84 423.948C433.198 423.094 432.607 421.123 433.395 419.547C437.337 411.861 440.884 403.913 444.037 395.834C444.694 394.126 446.599 393.337 448.307 393.994C450.015 394.717 450.869 396.622 450.212 398.264ZM449.949 217.557C450.409 218.937 451.657 219.856 453.103 219.856C453.431 219.856 453.76 219.791 454.088 219.725C455.796 219.2 456.781 217.36 456.256 215.587C453.562 207.179 450.475 198.771 446.993 190.625C446.271 188.983 444.366 188.195 442.658 188.918C441.015 189.64 440.227 191.545 440.95 193.253C444.234 201.135 447.322 209.346 449.949 217.557ZM461.971 343.349C460.197 343.021 458.489 344.203 458.161 345.977C456.65 354.45 454.679 362.99 452.314 371.266C451.789 373.04 452.84 374.814 454.613 375.339C454.942 375.405 455.205 375.47 455.533 375.47C456.978 375.47 458.292 374.551 458.686 373.106C461.117 364.632 463.088 355.896 464.664 347.159C464.927 345.32 463.745 343.612 461.971 343.349ZM465.65 290.93C465.584 290.93 465.584 290.93 465.65 290.93C463.81 290.93 462.365 292.441 462.365 294.281C462.365 295.66 462.365 297.105 462.365 298.485C462.365 305.71 462.102 313.067 461.511 320.227C461.38 322.066 462.694 323.643 464.533 323.774C464.599 323.774 464.73 323.774 464.796 323.774C466.504 323.774 467.949 322.46 468.08 320.753C468.671 313.396 469 305.907 469 298.485C469 297.039 469 295.594 469 294.149C468.869 292.376 467.423 290.93 465.65 290.93ZM460.723 268.334C460.92 270.042 462.365 271.224 464.007 271.224C464.139 271.224 464.27 271.224 464.402 271.224C466.175 271.027 467.489 269.385 467.292 267.611C466.307 258.809 464.861 249.941 463.022 241.336C462.628 239.563 460.92 238.446 459.146 238.774C457.373 239.169 456.256 240.876 456.584 242.65C458.358 251.124 459.737 259.729 460.723 268.334ZM425.118 441.092C423.607 440.107 421.571 440.567 420.585 442.078C415.921 449.369 410.928 456.463 405.542 463.295C404.425 464.74 404.688 466.776 406.133 467.893C406.724 468.353 407.447 468.615 408.169 468.615C409.155 468.615 410.14 468.156 410.732 467.367C416.184 460.404 421.374 453.113 426.103 445.69C427.089 444.114 426.629 442.078 425.118 441.092ZM435.234 166.715C430.964 158.964 426.3 151.344 421.308 144.053C420.257 142.542 418.22 142.148 416.709 143.199C415.198 144.25 414.804 146.286 415.855 147.797C420.717 154.957 425.315 162.38 429.454 169.934C430.045 171.051 431.162 171.642 432.344 171.642C432.87 171.642 433.395 171.51 433.921 171.248C435.563 170.328 436.088 168.292 435.234 166.715ZM-56.402 389.79C-56.9933 388.082 -58.8983 387.229 -60.6063 387.82C-62.3143 388.411 -63.1683 390.316 -62.5771 392.024C-59.5553 400.366 -56.0736 408.577 -52.2634 416.525C-51.6722 417.708 -50.5555 418.364 -49.3073 418.364C-48.8475 418.364 -48.322 418.233 -47.8621 418.036C-46.2198 417.248 -45.5629 415.277 -46.2855 413.635C-50.0956 405.949 -53.4459 397.936 -56.402 389.79ZM-61.0661 213.682C-59.6866 213.682 -58.4385 212.828 -57.9787 211.448C-55.1539 203.303 -51.935 195.158 -48.3219 187.341C-47.5336 185.699 -48.3219 183.728 -49.9642 183.006C-51.6065 182.283 -53.5773 183.006 -54.2999 184.648C-57.9787 192.662 -61.329 201.004 -64.1537 209.346C-64.7449 211.054 -63.8252 212.959 -62.1172 213.55C-61.7887 213.616 -61.3946 213.682 -61.0661 213.682ZM-69.2776 339.539C-69.5404 337.766 -71.2484 336.518 -73.0221 336.78C-74.7957 337.043 -76.0439 338.751 -75.7811 340.525C-74.4673 349.261 -72.6279 357.997 -70.4601 366.603C-70.0659 368.113 -68.7521 369.099 -67.3069 369.099C-67.0441 369.099 -66.7813 369.099 -66.5186 368.967C-64.7449 368.508 -63.6939 366.734 -64.1537 364.96C-66.1901 356.618 -67.9638 348.079 -69.2776 339.539ZM56.9818 527.537C49.6243 523.07 42.3326 518.21 35.4349 513.02C33.9897 511.969 31.9533 512.232 30.8365 513.677C29.7198 515.122 30.0482 517.224 31.4934 518.275C38.5881 523.53 46.0113 528.523 53.5658 533.121C54.0914 533.449 54.6826 533.581 55.2738 533.581C56.3905 533.581 57.4417 532.989 58.0986 532.004C59.0182 530.493 58.5584 528.457 56.9818 527.537ZM103.754 549.871C95.6742 546.915 87.5941 543.565 79.7768 539.821C78.1345 539.033 76.1637 539.755 75.3754 541.397C74.5871 543.039 75.3098 545.01 76.9521 545.798C84.9007 549.608 93.1779 553.09 101.521 556.111C101.915 556.243 102.243 556.308 102.637 556.308C103.951 556.308 105.265 555.454 105.725 554.141C106.382 552.367 105.462 550.528 103.754 549.871ZM-75.0585 317.205C-73.2191 317.074 -71.8396 315.563 -71.9709 313.724C-72.2337 308.666 -72.4308 303.542 -72.4308 298.419C-72.4308 294.872 -72.3651 291.259 -72.2337 287.712C-72.168 285.872 -73.5476 284.362 -75.387 284.296C-77.1606 284.23 -78.7372 285.61 -78.8029 287.449C-78.9343 291.062 -79 294.74 -79 298.419C-79 303.608 -78.8686 308.929 -78.5401 314.052C-78.4087 315.826 -76.9635 317.14 -75.2555 317.14C-75.1898 317.205 -75.1242 317.205 -75.0585 317.205ZM-34.0012 436.626C-34.9209 435.049 -36.9573 434.589 -38.5339 435.509C-40.1105 436.428 -40.5704 438.465 -39.6507 440.041C-35.0523 447.595 -30.0597 455.018 -24.8044 462.112C-24.1475 462.966 -23.1621 463.426 -22.1767 463.426C-21.5198 463.426 -20.7972 463.229 -20.206 462.769C-18.7607 461.653 -18.4323 459.616 -19.549 458.171C-24.673 451.208 -29.5342 443.983 -34.0012 436.626ZM-73.6132 264.721C-73.4819 264.721 -73.2848 264.721 -73.1534 264.721C-71.5111 264.721 -70.1316 263.539 -69.8688 261.897C-68.6864 253.357 -67.1098 244.752 -65.0733 236.41C-64.6792 234.636 -65.7303 232.863 -67.504 232.468C-69.2776 232.009 -71.0513 233.125 -71.4455 234.899C-73.4819 243.504 -75.1242 252.306 -76.3067 261.043C-76.7008 262.816 -75.4526 264.458 -73.6132 264.721ZM-2.99468 478.206C-4.24283 476.892 -6.27934 476.761 -7.65886 478.009C-8.97269 479.257 -9.10403 481.293 -7.85589 482.673C-1.87794 489.241 4.42844 495.547 10.9319 501.459C11.5888 502.05 12.3772 502.313 13.1655 502.313C14.0851 502.313 14.9391 501.919 15.596 501.262C16.8442 499.948 16.7128 497.846 15.399 496.598C8.9612 490.752 2.78618 484.578 -2.99468 478.206ZM-36.3661 164.285C-32.0304 156.796 -27.3006 149.505 -22.2424 142.476C-21.1913 141.031 -21.5198 138.929 -22.965 137.878C-24.4102 136.827 -26.5123 137.156 -27.5634 138.601C-32.753 145.761 -37.6142 153.315 -42.0156 160.935C-42.9352 162.511 -42.4098 164.547 -40.8332 165.401C-40.3076 165.73 -39.7164 165.861 -39.1909 165.861C-38.0741 165.927 -36.9573 165.336 -36.3661 164.285ZM195 565.833C189.942 565.833 184.883 565.702 179.891 565.439C177.986 565.373 176.541 566.753 176.409 568.526C176.278 570.366 177.723 571.876 179.497 572.008C184.621 572.271 189.81 572.468 195 572.468C196.839 572.468 198.285 571.022 198.285 569.183C198.285 567.344 196.774 565.833 195 565.833ZM154.008 562.746C145.468 561.432 136.929 559.658 128.586 557.556C126.812 557.097 125.038 558.148 124.579 559.921C124.119 561.695 125.17 563.468 126.943 563.928C135.483 566.096 144.286 567.869 153.023 569.249C153.22 569.249 153.351 569.315 153.549 569.315C155.125 569.315 156.57 568.132 156.767 566.556C157.03 564.716 155.848 563.009 154.008 562.746ZM365.93 511.444C367.506 512.758 367.703 515.057 366.39 516.633C365.076 518.21 362.776 518.407 361.2 517.093C360.74 516.699 357.127 513.677 356.01 512.626L355.025 511.707C348.456 505.335 341.69 498.7 339.259 489.176C336.697 479.257 333.281 465.659 315.281 443.786C309.698 436.954 294.983 423.357 286.968 416.525L280.071 410.679C276.458 407.592 271.137 405.884 267.195 410.153C264.896 412.65 263.779 415.343 263.976 417.905C264.108 420.269 265.421 422.568 267.589 424.408C269.1 425.721 269.297 428.021 267.983 429.597C266.67 431.173 264.37 431.305 262.794 429.991L256.356 424.539C251.889 420.729 245.977 421.189 241.641 425.656C239.933 427.364 238.225 430.845 238.422 433.801C238.488 435.443 239.079 436.691 240.262 437.677L243.48 440.37C244.991 441.684 245.188 443.983 243.875 445.559C243.152 446.413 242.101 446.873 241.05 446.873C240.196 446.873 239.342 446.61 238.685 446.019L235.532 443.326L234.415 442.406L233.758 441.815C229.357 438.071 224.167 438.071 219.897 441.815C217.861 443.588 216.81 445.888 216.81 448.581C216.81 452.062 218.715 455.872 221.671 458.368C223.182 459.682 223.379 461.981 222.065 463.557C220.751 465.068 218.452 465.265 216.875 463.952L165.439 420.335C162.351 417.708 159.132 416.065 156.373 415.671C153.22 415.211 150.592 416.394 148.228 419.153C145.6 422.24 145.009 425.13 146.257 428.283C147.242 430.779 149.344 433.473 152.563 436.166L239.999 510.327C240.656 510.721 241.247 511.312 241.575 512.101C242.298 513.743 241.641 515.582 240.262 516.567C240.064 516.699 239.802 516.83 239.605 516.962C239.21 517.159 238.882 517.29 238.488 517.29C235.006 518.144 223.97 519.195 199.795 509.013C196.445 507.634 185.343 503.627 182.059 511.247C179.365 517.487 183.767 520.706 185.803 521.822C185.869 521.888 192.964 525.698 199.401 528.982C203.409 531.019 207.022 532.858 210.372 534.632C230.211 545.01 241.116 550.725 281.122 553.747C285.786 554.075 295.245 555.717 305.625 562.811C309.632 565.57 315.676 570.3 315.873 570.497L315.938 570.563C317.449 571.811 317.646 574.044 316.464 575.621C315.741 576.54 314.69 577 313.573 577C312.785 577 311.997 576.737 311.274 576.212C311.209 576.146 305.231 571.417 301.42 568.855C292.421 562.746 284.406 561.366 280.465 561.038C238.948 557.951 227.583 551.973 206.89 541.135C203.606 539.427 199.993 537.522 196.051 535.551C189.482 532.267 182.322 528.326 182.256 528.326C176.015 524.91 171.417 517.421 175.292 508.422C180.022 497.387 192.504 498.043 202.62 502.313C214.576 507.371 222.919 509.407 228.371 510.13C227.386 509.276 226.269 508.356 225.087 507.371L170.169 460.799H64.9962C58.0329 460.799 52.3833 455.149 52.3833 448.187V321.607C52.3833 314.644 58.0329 308.995 64.9962 308.995H190.007C196.971 308.995 202.62 314.644 202.62 321.607V442.012L209.518 447.858C209.649 443.26 211.554 439.187 215.102 436.1C219.897 431.962 225.678 430.582 231.13 432.093C231.525 427.429 233.889 422.963 236.386 420.401C242.101 414.489 249.853 412.978 256.553 416C256.882 412.19 258.59 408.446 261.677 405.096C267.721 398.461 276.983 398.395 284.669 404.964L291.567 410.81C298.596 416.788 314.362 431.108 320.799 438.99C339.784 462.178 343.66 477.221 346.222 487.205C348.127 494.759 353.908 500.408 360.017 506.32L361.003 507.24C361.791 507.962 364.419 510.196 365.93 511.444ZM152.038 408.38L150.067 399.643C149.738 398.133 150.264 396.556 151.381 395.505L175.227 374.551L143.629 371.595C142.053 371.463 140.739 370.478 140.147 369.033L127.6 339.933L115.053 369.099C114.462 370.544 113.082 371.463 111.572 371.661L79.9738 374.616L103.82 395.571C105.002 396.622 105.528 398.198 105.134 399.709L98.1705 430.648L125.433 414.489C126.089 414.095 126.812 413.898 127.6 413.898C128.323 413.898 129.111 414.095 129.768 414.489L139.293 420.138C139.95 418.233 141.067 416.262 142.775 414.292C145.337 411.007 148.556 409.102 152.038 408.38ZM158.738 408.446C163.468 409.497 167.541 412.255 170.234 414.489L195.328 435.772V321.607C195.328 318.651 192.964 316.286 190.007 316.286H64.9962C62.0401 316.286 59.6751 318.651 59.6751 321.607V447.858C59.6751 450.814 62.0401 453.179 64.9962 453.179H161.497L147.833 441.618C143.695 438.136 140.87 434.458 139.425 430.845C139.031 429.794 138.702 428.677 138.505 427.364L127.535 420.861L96.7909 439.122C96.134 439.516 95.3457 439.713 94.6231 439.713C93.7691 439.713 92.8494 439.45 92.1268 438.925C90.7473 437.939 90.0904 436.231 90.4845 434.589L98.3018 399.709L71.4339 376.062C70.1858 374.945 69.6602 373.171 70.1858 371.595C70.7113 369.953 72.1565 368.836 73.7988 368.705L109.404 365.355L123.593 332.511C124.25 330.934 125.761 329.949 127.469 329.949C129.177 329.949 130.688 330.934 131.345 332.511L145.534 365.355L181.139 368.705C182.847 368.836 184.227 370.018 184.752 371.595C185.278 373.237 184.818 374.945 183.504 376.062L156.636 399.709L158.738 408.446ZM374.864 48.0176V264.327C374.864 272.801 367.966 279.698 359.492 279.698H52.6461C44.1719 279.698 37.2743 272.801 37.2743 264.327V156.008C12.18 141.557 -4.76841 114.494 -4.76841 83.5546C-4.76841 37.4419 32.7416 0 78.7914 0C105.725 0 129.702 12.8091 145.009 32.6467H359.426C367.966 32.6467 374.864 39.5439 374.864 48.0176ZM52.6461 272.407H359.492C363.893 272.407 367.506 268.794 367.506 264.393V48.0833C367.506 43.6823 363.893 40.0694 359.492 40.0694H150.133C157.95 52.7472 162.417 67.7239 162.417 83.686C162.417 129.799 124.907 167.241 78.8571 167.241C66.6385 167.241 55.0768 164.613 44.6318 159.884V264.458C44.6318 268.794 48.2448 272.407 52.6461 272.407ZM78.8571 6.56876C36.4203 6.56876 1.86643 41.1204 1.86643 83.5546C1.86643 125.989 36.4203 160.541 78.8571 160.541C121.294 160.541 155.848 125.989 155.848 83.5546C155.848 62.9944 147.768 44.3391 134.564 30.4791L75.9667 124.412C75.3754 125.398 74.2587 125.989 73.2077 125.989C72.6164 125.989 72.0251 125.857 71.4996 125.529L41.4129 107.662C39.8363 106.742 39.3107 104.706 40.2304 103.13C41.1501 101.553 43.1865 101.028 44.7631 102.013L72.0909 118.238L129.702 25.8809C116.17 13.8601 98.3676 6.56876 78.8571 6.56876ZM338.865 220.71H198.088C196.051 220.71 194.409 222.353 194.409 224.389C194.409 226.425 196.051 228.067 198.088 228.067H338.865C340.901 228.067 342.544 226.425 342.544 224.389C342.544 222.353 340.901 220.71 338.865 220.71ZM105.265 228.002H179.957C181.993 228.002 183.635 226.36 183.635 224.323C183.635 222.287 181.993 220.645 179.957 220.645H105.265C103.229 220.645 101.586 222.287 101.586 224.323C101.586 226.36 103.229 228.002 105.265 228.002ZM338.865 244.949H72.9449C70.9084 244.949 69.2662 246.591 69.2662 248.628C69.2662 250.664 70.9084 252.306 72.9449 252.306H338.865C340.901 252.306 342.544 250.664 342.544 248.628C342.544 246.591 340.901 244.949 338.865 244.949ZM201.569 106.085C201.569 77.5771 224.758 54.3237 253.334 54.3237C281.844 54.3237 305.099 77.5114 305.099 106.085C305.099 134.594 281.91 157.847 253.334 157.847C224.824 157.847 201.569 134.594 201.569 106.085ZM253.334 60.9581C228.437 60.9581 208.138 81.1899 208.138 106.151C208.138 131.047 228.371 151.344 253.334 151.344C278.231 151.344 298.53 131.112 298.53 106.151C298.53 81.1899 278.231 60.9581 253.334 60.9581ZM166.096 187.604C165.045 186.684 164.585 185.173 165.045 183.794C165.504 182.415 166.687 181.429 168.132 181.298L177.854 180.378L181.73 171.379C182.322 170.065 183.57 169.211 185.015 169.211C186.46 169.211 187.708 170.065 188.299 171.379L192.175 180.378L201.898 181.298C203.343 181.429 204.525 182.415 204.985 183.794C205.445 185.173 204.985 186.684 203.934 187.604L196.577 194.041L198.744 203.566C199.073 204.945 198.482 206.39 197.365 207.244C196.182 208.098 194.672 208.164 193.423 207.441L185.015 202.449L176.606 207.441C176.015 207.77 175.424 207.967 174.767 207.967C174.044 207.967 173.256 207.704 172.665 207.31C171.482 206.456 170.957 205.011 171.285 203.632L173.453 194.107L166.096 187.604ZM180.285 186.816L175.687 187.275L179.168 190.297C180.154 191.151 180.614 192.53 180.285 193.778L179.3 198.311L183.241 195.946C183.767 195.618 184.424 195.421 185.081 195.421C185.737 195.421 186.329 195.618 186.92 195.946L190.927 198.311L189.942 193.778C189.679 192.53 190.073 191.217 191.058 190.297L194.54 187.21L189.942 186.75C188.628 186.618 187.511 185.765 186.986 184.582L185.146 180.378L183.307 184.648C182.716 185.83 181.599 186.684 180.285 186.816ZM249.458 187.604L242.101 194.041L244.269 203.566C244.597 204.945 244.006 206.39 242.889 207.244C241.707 208.098 240.196 208.164 238.948 207.441L230.539 202.449L222.131 207.441C221.539 207.77 220.948 207.967 220.291 207.967C219.569 207.967 218.78 207.704 218.189 207.31C217.007 206.456 216.481 205.011 216.81 203.632L218.977 194.107L211.62 187.67C210.569 186.75 210.109 185.239 210.569 183.86C211.029 182.48 212.211 181.495 213.656 181.364L223.379 180.444L227.255 171.445C227.78 170.131 229.094 169.277 230.539 169.277C231.984 169.277 233.233 170.131 233.824 171.445L237.7 180.444L247.422 181.364C248.867 181.495 250.05 182.48 250.509 183.86C250.969 185.173 250.509 186.619 249.458 187.604ZM228.7 195.88C229.225 195.552 229.882 195.355 230.539 195.355C231.196 195.355 231.787 195.552 232.379 195.88L236.386 198.245L235.4 193.713C235.138 192.465 235.532 191.151 236.517 190.231L239.999 187.144L235.4 186.684C234.086 186.553 232.97 185.699 232.444 184.517L230.605 180.312L228.766 184.582C228.24 185.765 227.123 186.618 225.809 186.75L221.211 187.21L224.693 190.231C225.678 191.085 226.138 192.465 225.809 193.713L224.824 198.245L228.7 195.88ZM294.917 187.604L287.56 194.041L289.727 203.566C290.056 204.945 289.465 206.39 288.348 207.244C287.165 208.098 285.655 208.164 284.406 207.441L275.998 202.449L267.589 207.441C266.998 207.77 266.407 207.967 265.75 207.967C265.027 207.967 264.239 207.704 263.648 207.31C262.465 206.456 261.94 205.011 262.268 203.632L264.436 194.107L257.079 187.67C256.028 186.75 255.568 185.239 256.028 183.86C256.487 182.48 257.67 181.561 259.115 181.429L268.837 180.51L272.713 171.51C273.304 170.197 274.553 169.343 275.998 169.343C277.443 169.343 278.691 170.197 279.282 171.51L283.158 180.51L292.881 181.429C294.326 181.561 295.508 182.546 295.968 183.925C296.428 185.173 296.034 186.619 294.917 187.604ZM274.158 195.88C274.684 195.552 275.341 195.355 275.998 195.355C276.655 195.355 277.312 195.552 277.837 195.88L281.779 198.245L280.793 193.713C280.531 192.465 280.925 191.151 281.91 190.231L285.392 187.144L280.793 186.684C279.48 186.553 278.363 185.699 277.837 184.517L275.998 180.312L274.158 184.582C273.633 185.765 272.516 186.618 271.202 186.75L266.604 187.21L270.086 190.231C271.071 191.085 271.531 192.465 271.202 193.713L270.217 198.245L274.158 195.88ZM304.574 181.298L314.296 180.378L318.172 171.379C318.763 170.065 320.011 169.211 321.456 169.211C322.902 169.211 324.15 170.065 324.741 171.379L328.617 180.378L338.339 181.298C339.784 181.429 340.967 182.415 341.427 183.728C341.887 185.108 341.492 186.553 340.376 187.538L333.018 193.976L335.186 203.5C335.515 204.88 334.989 206.325 333.806 207.179C332.624 208.033 331.113 208.098 329.865 207.376L321.456 202.384L313.048 207.376C312.457 207.704 311.865 207.901 311.209 207.901C310.486 207.901 309.698 207.639 309.106 207.244C307.924 206.39 307.398 204.945 307.727 203.566L309.895 194.041L302.537 187.604C301.486 186.684 301.026 185.173 301.486 183.794C301.946 182.415 303.194 181.429 304.574 181.298ZM316.727 186.816L312.128 187.275L315.61 190.297C316.595 191.217 317.055 192.53 316.727 193.844L315.741 198.311L319.683 195.946C320.8 195.289 322.245 195.289 323.362 195.946L327.303 198.311L326.318 193.778C326.055 192.53 326.449 191.217 327.434 190.297L330.916 187.21L326.318 186.75C325.004 186.618 323.887 185.765 323.362 184.582L321.522 180.378L319.683 184.648C319.157 185.83 318.04 186.684 316.727 186.816Z" fill="#333333" fill-opacity="0.05"/>
</svg>
