<svg width="68" height="78" viewBox="0 0 68 78" fill="none" xmlns="http://www.w3.org/2000/svg">
<path d="M34 77.41L22.8873 66.2974H6.44792C4.97847 66.2974 3.69271 65.7463 2.59063 64.6442C1.48854 63.5421 0.9375 62.2564 0.9375 60.7869V5.68278C0.9375 4.16742 1.48854 2.87001 2.59063 1.79059C3.69271 0.71176 4.97847 0.172363 6.44792 0.172363H61.5521C63.0215 0.172363 64.3073 0.71176 65.4094 1.79059C66.5115 2.87001 67.0625 4.16742 67.0625 5.68278V60.7869C67.0625 62.2564 66.5115 63.5421 65.4094 64.6442C64.3073 65.7463 63.0215 66.2974 61.5521 66.2974H45.1127L34 77.41ZM6.44792 57.3889C10.1215 53.9601 14.2819 51.1896 18.929 49.0773C23.5756 46.965 28.5961 45.9088 33.9908 45.9088C39.385 45.9088 44.4086 46.965 49.0618 49.0773C53.715 51.1896 57.8785 53.9601 61.5521 57.3889V5.68278H6.44792V57.3889ZM34.1837 38.6534C37.7348 38.6534 40.735 37.4288 43.184 34.9798C45.633 32.5308 46.8576 29.5306 46.8576 25.9795C46.8576 22.4284 45.633 19.4281 43.184 16.9791C40.735 14.5301 37.7348 13.3055 34.1837 13.3055C30.6326 13.3055 27.6323 14.5301 25.1833 16.9791C22.7343 19.4281 21.5097 22.4284 21.5097 25.9795C21.5097 29.5306 22.7343 32.5308 25.1833 34.9798C27.6323 37.4288 30.6326 38.6534 34.1837 38.6534ZM11.4991 60.7869H56.5009V59.9604C53.1946 57.144 49.6435 55.0163 45.8474 53.5775C42.0513 52.1387 38.1021 51.4192 34 51.4192C29.8979 51.4192 25.9487 52.1387 22.1526 53.5775C18.3565 55.0163 14.8054 57.144 11.4991 59.9604V60.7869ZM34.1837 33.143C32.1939 33.143 30.5024 32.4465 29.1095 31.0537C27.7167 29.6608 27.0201 27.9693 27.0201 25.9795C27.0201 23.9897 27.7167 22.2982 29.1095 20.9053C30.5024 19.5125 32.1939 18.8159 34.1837 18.8159C36.1735 18.8159 37.865 19.5125 39.2579 20.9053C40.6507 22.2982 41.3472 23.9897 41.3472 25.9795C41.3472 27.9693 40.6507 29.6608 39.2579 31.0537C37.865 32.4465 36.1735 33.143 34.1837 33.143Z" fill="black"/>
</svg>
