<svg width="22" height="18" viewBox="0 0 22 18" fill="none" xmlns="http://www.w3.org/2000/svg">
<path fill-rule="evenodd" clip-rule="evenodd" d="M8.96875 0.875H13.0312C16.8614 0.875 18.7765 0.875 19.9663 2.06488C21.1562 3.25476 21.1562 5.16983 21.1562 9C21.1562 12.8301 21.1562 14.7453 19.9663 15.9351C18.7765 17.125 16.8614 17.125 13.0312 17.125H8.96875C5.13858 17.125 3.22351 17.125 2.03363 15.9351C0.84375 14.7453 0.84375 12.8301 0.84375 9C0.84375 5.16983 0.84375 3.25476 2.03363 2.06488C3.22351 0.875 5.13858 0.875 8.96875 0.875ZM12.2695 5.95312C12.2695 5.53244 12.6106 5.19141 13.0312 5.19141H18.1094C18.53 5.19141 18.8711 5.53244 18.8711 5.95312C18.8711 6.37381 18.53 6.71484 18.1094 6.71484H13.0312C12.6106 6.71484 12.2695 6.37381 12.2695 5.95312ZM13.2852 9C13.2852 8.57933 13.6262 8.23828 14.0469 8.23828H18.1094C18.53 8.23828 18.8711 8.57933 18.8711 9C18.8711 9.42067 18.53 9.76172 18.1094 9.76172H14.0469C13.6262 9.76172 13.2852 9.42067 13.2852 9ZM14.3008 12.0469C14.3008 11.6262 14.6418 11.2852 15.0625 11.2852H18.1094C18.53 11.2852 18.8711 11.6262 18.8711 12.0469C18.8711 12.4675 18.53 12.8086 18.1094 12.8086H15.0625C14.6418 12.8086 14.3008 12.4675 14.3008 12.0469ZM9.98438 5.95312C9.98438 7.07498 9.07498 7.98438 7.95312 7.98438C6.8313 7.98438 5.92188 7.07498 5.92188 5.95312C5.92188 4.8313 6.8313 3.92188 7.95312 3.92188C9.07498 3.92188 9.98438 4.8313 9.98438 5.95312ZM7.95312 14.0781C12.0156 14.0781 12.0156 13.1687 12.0156 12.0469C12.0156 10.925 10.1967 10.0156 7.95312 10.0156C5.70947 10.0156 3.89062 10.925 3.89062 12.0469C3.89062 13.1687 3.89062 14.0781 7.95312 14.0781Z" fill="white"/>
</svg>
