<svg width="21" height="21" viewBox="0 0 21 21" fill="none" xmlns="http://www.w3.org/2000/svg">
<path fill-rule="evenodd" clip-rule="evenodd" d="M10.1562 0C5.36854 0 2.97469 -9.68575e-08 1.48735 1.48735C-9.68575e-08 2.97469 0 5.36854 0 10.1562C0 14.9439 -9.68575e-08 17.3378 1.48735 18.8251C2.97469 20.3125 5.36854 20.3125 10.1562 20.3125C14.9439 20.3125 17.3378 20.3125 18.8251 18.8251C20.3125 17.3378 20.3125 14.9439 20.3125 10.1562C20.3125 5.36854 20.3125 2.97469 18.8251 1.48735C17.3378 -9.68575e-08 14.9439 0 10.1562 0ZM10.1562 4.31641C10.5769 4.31641 10.918 4.65744 10.918 5.07812V11.1719C10.918 11.5925 10.5769 11.9336 10.1562 11.9336C9.73558 11.9336 9.39453 11.5925 9.39453 11.1719V5.07812C9.39453 4.65744 9.73558 4.31641 10.1562 4.31641ZM10.1562 15.2344C10.7172 15.2344 11.1719 14.7797 11.1719 14.2188C11.1719 13.6578 10.7172 13.2031 10.1562 13.2031C9.59532 13.2031 9.14062 13.6578 9.14062 14.2188C9.14062 14.7797 9.59532 15.2344 10.1562 15.2344Z" fill="white"/>
</svg>
