<svg width="20" height="22" viewBox="0 0 20 22" fill="none" xmlns="http://www.w3.org/2000/svg">
<path fill-rule="evenodd" clip-rule="evenodd" d="M0.569162 3.43389C0.15625 4.02218 0.15625 5.77086 0.15625 9.26827V10.9906C0.15625 17.1572 4.79261 20.1498 7.70155 21.4205C8.49063 21.7651 8.88514 21.9375 10 21.9375C11.1149 21.9375 11.5094 21.7651 12.2984 21.4205C15.2073 20.1498 19.8438 17.1572 19.8438 10.9906V9.26827C19.8438 5.77086 19.8438 4.02218 19.4309 3.43389C19.018 2.84559 17.3737 2.28277 14.0853 1.15711L13.4588 0.942662C11.7445 0.355887 10.8875 0.0625 10 0.0625C9.11253 0.0625 8.25547 0.355887 6.54126 0.942662L5.91475 1.15711C2.62629 2.28277 0.982064 2.84559 0.569162 3.43389ZM8.75455 7.02241L8.61116 7.2796C8.45366 7.56209 8.37491 7.70334 8.25219 7.79654C8.12936 7.88974 7.97645 7.92433 7.6707 7.99352L7.39229 8.05651C6.31618 8.29999 5.77814 8.42174 5.65012 8.83339C5.52211 9.24508 5.88892 9.67394 6.62254 10.5319L6.81234 10.7538C7.02081 10.9976 7.12505 11.1194 7.17195 11.2703C7.21883 11.4211 7.20307 11.5836 7.17155 11.9089L7.14286 12.2051C7.03195 13.3496 6.97649 13.922 7.31163 14.1764C7.64676 14.4308 8.15058 14.1988 9.15814 13.7349L9.41878 13.6148C9.70512 13.483 9.8483 13.4171 10 13.4171C10.1517 13.4171 10.2949 13.483 10.5812 13.6148L10.8419 13.7349C11.8494 14.1988 12.3532 14.4308 12.6883 14.1764C13.0236 13.922 12.968 13.3496 12.8571 12.2051L12.8284 11.9089C12.7969 11.5837 12.7812 11.4211 12.8281 11.2703C12.8749 11.1194 12.9792 10.9976 13.1876 10.7538L13.3775 10.5319C14.1111 9.67394 14.4779 9.24508 14.3498 8.83339C14.2219 8.42174 13.6839 8.29999 12.6077 8.05651L12.3293 7.99352C12.0235 7.92433 11.8706 7.88974 11.7478 7.79654C11.6251 7.70335 11.5463 7.5621 11.3888 7.27961L11.2455 7.02241C10.6914 6.0283 10.4142 5.53125 10 5.53125C9.5858 5.53125 9.30864 6.0283 8.75455 7.02241Z" fill="white"/>
</svg>
