<svg width="24" height="26" viewBox="0 0 24 26" fill="none" xmlns="http://www.w3.org/2000/svg">
<path fill-rule="evenodd" clip-rule="evenodd" d="M12 25.1875C10.207 25.1875 8.67805 25.1507 7.39587 25.0961V0.903863C8.67805 0.849263 10.207 0.8125 12 0.8125C15.4717 0.8125 17.9536 0.950322 19.5703 1.08862C21.3561 1.24139 22.7073 2.63709 22.8378 4.41184C22.9679 6.18166 23.1042 8.99188 23.1042 13C23.1042 17.0081 22.9679 19.8183 22.8378 21.5882C22.7073 23.3629 21.3561 24.7586 19.5703 24.9114C17.9536 25.0497 15.4716 25.1875 12 25.1875ZM9.83337 6.5C9.83337 5.90168 10.3184 5.41667 10.9167 5.41667H17.4167C18.015 5.41667 18.5 5.90168 18.5 6.5C18.5 7.09833 18.015 7.58333 17.4167 7.58333H10.9167C10.3184 7.58333 9.83337 7.09833 9.83337 6.5ZM10.9167 10.2917C10.3184 10.2917 9.83337 10.7767 9.83337 11.375C9.83337 11.9733 10.3184 12.4583 10.9167 12.4583H14.1667C14.765 12.4583 15.25 11.9733 15.25 11.375C15.25 10.7767 14.765 10.2917 14.1667 10.2917H10.9167ZM4.42982 1.08867C4.82464 1.0549 5.27102 1.02116 5.77087 0.989441V25.0106C5.27102 24.979 4.82464 24.9452 4.42982 24.9114C2.64393 24.7587 1.29277 23.363 1.16228 21.5882C1.03215 19.8183 0.895874 17.0082 0.895874 13.0001C0.895874 8.99194 1.03215 6.18172 1.16229 4.41189C1.29279 2.63714 2.64394 1.24145 4.42982 1.08867Z" fill="white"/>
</svg>
