<svg width="22" height="22" viewBox="0 0 22 22" fill="none" xmlns="http://www.w3.org/2000/svg">
<path fill-rule="evenodd" clip-rule="evenodd" d="M5.81966 0.761152C6.4196 0.549738 7.19077 0.338697 8.09474 0.223211C8.32355 0.193978 8.52159 0.375608 8.52159 0.606291V5.85378C8.52159 6.04259 8.38662 6.20269 8.20421 6.2514C7.5941 6.41433 7.05615 6.70511 6.62244 7.13882C5.90112 7.86012 5.57516 8.86978 5.57516 10.0201C5.57516 11.1705 5.90112 12.1801 6.62244 12.9014C7.34374 13.6227 8.3534 13.9487 9.50373 13.9487C9.75904 13.9487 10.0074 13.9326 10.2473 13.8998C10.3732 13.8825 10.5007 13.9211 10.5938 14.0076C11.7381 15.0725 13.4598 16.0893 15.562 16.7004C16.0829 16.8519 16.6279 16.5524 16.7792 16.0315C16.9307 15.5107 16.6312 14.9657 16.1104 14.8143C14.5562 14.3624 13.2855 13.6673 12.388 12.9595C12.3697 12.945 12.3685 12.9179 12.385 12.9014C13.1063 12.1801 13.4323 11.1705 13.4323 10.0201C13.4323 8.86978 13.1063 7.86012 12.385 7.13882C11.9513 6.70511 11.4134 6.41433 10.8033 6.2514C10.6208 6.20269 10.4859 6.04261 10.4859 5.85378V0.595346C10.4859 0.366535 10.6808 0.185612 10.9083 0.210555C11.8078 0.309205 12.5819 0.488949 13.1871 0.6689C13.6383 0.803081 13.9979 0.938071 14.2483 1.04135C14.3736 1.09302 14.4718 1.13685 14.5407 1.16881C14.5752 1.1848 14.6024 1.19783 14.622 1.2074L14.6458 1.21912L14.6479 1.22021C16.7426 2.25352 18.2686 4.12881 18.6736 7.03588C18.7069 7.27528 18.8722 7.64223 19.1962 8.15084C19.4279 8.51442 19.6969 8.8863 19.9796 9.27692C20.0811 9.41716 20.1842 9.55983 20.2881 9.70537C20.6616 10.2288 21.0508 10.8 21.2865 11.3344C21.5039 11.8272 21.7198 12.5809 21.2616 13.2342C21.0725 13.5036 20.8214 13.7236 20.5296 13.8754C20.2408 14.0257 19.9205 14.1049 19.5952 14.1068L19.5196 14.1087C19.3065 14.1141 19.1367 14.2883 19.1367 14.5014V15.5277C19.1367 17.2635 17.7295 18.6705 15.9938 18.6705H15.2185C14.8633 18.6705 14.6373 18.8839 14.5888 19.1132C14.5884 19.1149 14.5882 19.1167 14.5882 19.1186V21.0068C14.5882 21.4407 14.2365 21.7925 13.8025 21.7925H4.34465C3.91072 21.7925 3.55894 21.4407 3.55894 21.0068C3.55894 20.6271 3.55988 20.1618 3.56114 19.7056C3.56428 18.5774 3.31338 17.4939 2.75295 16.5873C2.66855 16.4507 2.58363 16.3153 2.49877 16.18C2.00954 15.3997 1.52295 14.6236 1.15897 13.6755C0.723203 12.5404 0.468018 11.1859 0.468018 9.23448C0.468018 5.54915 1.79713 2.85798 4.38593 1.40541L4.40457 1.39435C4.42412 1.38289 4.451 1.3674 4.48503 1.34848C4.55304 1.31065 4.6496 1.25902 4.77285 1.19827C5.01917 1.07686 5.37318 0.918491 5.81966 0.761152Z" fill="white"/>
</svg>
