<svg width="26" height="26" viewBox="0 0 26 26" fill="none" xmlns="http://www.w3.org/2000/svg">
<path d="M13.3366 6.07708L18.3923 10.571C19.3374 11.4111 19.8099 11.8312 19.9841 12.3271C20.1371 12.7627 20.1371 13.2374 19.9841 13.673C19.8099 14.1689 19.3374 14.589 18.3923 15.4291L13.3366 19.923C12.9078 20.3042 12.6934 20.4948 12.5111 20.5016C12.3529 20.5076 12.201 20.4394 12.1003 20.3172C11.9843 20.1765 11.9843 19.8895 11.9843 19.3157V16.4822C9.51837 16.4822 6.91373 17.2742 5.01186 18.6802C4.02172 19.4122 3.52665 19.7782 3.33809 19.7637C3.15428 19.7497 3.03763 19.6779 2.94227 19.5201C2.84443 19.3583 2.93084 18.8526 3.10367 17.8412C4.22591 11.2741 8.74541 9.51789 11.9843 9.51789V6.68435C11.9843 6.1105 11.9843 5.82359 12.1003 5.68291C12.201 5.56071 12.3529 5.49247 12.5111 5.4984C12.6934 5.50522 12.9078 5.69584 13.3366 6.07708Z" fill="white"/>
<path fill-rule="evenodd" clip-rule="evenodd" d="M16.0356 4.8645C16.3219 4.55623 16.8038 4.53838 17.1121 4.82463L22.4099 9.74394C23.3716 10.637 23.918 11.8901 23.918 13.2025C23.918 14.586 23.311 15.8999 22.2575 16.7966L17.0875 21.1972C16.7672 21.4699 16.2865 21.4313 16.0138 21.1109C15.7411 20.7906 15.7798 20.3099 16.1001 20.0372L21.27 15.6366C21.9835 15.0292 22.3945 14.1395 22.3945 13.2025C22.3945 12.3137 22.0246 11.4651 21.3732 10.8603L16.0755 5.941C15.7672 5.65475 15.7494 5.17278 16.0356 4.8645Z" fill="white"/>
</svg>
