<svg width="32" height="30" viewBox="0 0 32 30" fill="none" xmlns="http://www.w3.org/2000/svg">
<path d="M18.1213 1.87868L18.1213 1.87867C16.9497 0.707111 15.0503 0.707111 13.8787 1.87867L13.8787 1.87867L1.87868 13.8787L1.87867 13.8787C0.707108 15.0503 0.707109 16.9497 1.87867 18.1213L1.87868 18.1213C2.72276 18.9654 3.94468 19.2014 5 18.8292V26C5 27.6569 6.34317 29 8 29H24C25.6569 29 27 27.6569 27 26V18.8292C28.0553 19.2014 29.2773 18.9654 30.1213 18.1213L29.4142 17.4142L30.1213 18.1213C31.2928 16.9497 31.2928 15.0503 30.1213 13.8787L30.1213 13.8787L18.1213 1.87868Z" fill="#333333" stroke="white" stroke-width="2"/>
</svg>
