<svg width="32" height="32" viewBox="0 0 32 32" fill="none" xmlns="http://www.w3.org/2000/svg">
<path d="M25.4444 20.3643C25.4444 19.2987 25.1105 18.3095 24.5425 17.4977L26.4713 12.2C28.7052 11.7007 30.374 9.7073 30.374 7.32324C30.374 4.56344 28.1367 2.32617 25.377 2.32617C22.6171 2.32617 20.3799 4.56343 20.3799 7.32324C20.3799 8.62642 20.8795 9.81341 21.6956 10.7022L19.9928 15.379C19.5756 15.416 19.1724 15.5043 18.7901 15.6377L16.3712 13.3816C16.3722 13.3414 16.3727 13.3011 16.3727 13.2607C16.3727 10.5017 14.136 8.26502 11.377 8.26502C8.6179 8.26502 6.38122 10.5017 6.38122 13.2607C6.38122 13.528 6.40229 13.7908 6.44298 14.0475L6 14.5206V3.5C6 2.11928 4.8807 1 3.5 1C2.11929 1 1 2.11929 1 3.5V28.5C1 29.8807 2.11927 31 3.5 31H28.5C29.8807 31 31 29.8807 31 28.5C31 27.1193 29.8807 26 28.5 26H6V21.8357L9.64178 17.9466C10.183 18.1471 10.7679 18.2565 11.377 18.2565C12.2028 18.2565 12.9832 18.0554 13.6704 17.6998L15.5223 19.427C15.4646 19.7311 15.4345 20.0445 15.4345 20.3643C15.4345 23.1285 17.6753 25.3692 20.4395 25.3692C23.2037 25.3692 25.4444 23.1285 25.4444 20.3643Z" fill="#333333" stroke="white" stroke-width="2"/>
</svg>
