<svg width="30" height="30" viewBox="0 0 30 30" fill="none" xmlns="http://www.w3.org/2000/svg">
<path d="M27.5018 9.46725C28.9547 8.98327 29.3389 7.10792 28.1933 6.09161L28.1933 6.09159C28.1908 6.08936 28.1882 6.08714 28.1857 6.08492V5.91414L27.5019 5.68622L15.629 1.72857C15.629 1.72856 15.629 1.72856 15.629 1.72856C15.2206 1.59243 14.7791 1.59243 14.3707 1.72856C14.3707 1.72856 14.3707 1.72856 14.3707 1.72857L2.49774 5.68622L2.49772 5.68623C1.68534 5.95703 1.13742 6.7173 1.13745 7.57361C1.13745 7.57363 1.13745 7.57366 1.13745 7.57368V17.4678C1.13745 18.9992 2.7953 19.9564 4.12158 19.1906C4.7371 18.8353 5.11628 18.1785 5.11628 17.4678V10.3336L6.83868 10.9074C5.30521 14.3831 6.16418 18.4557 8.92185 21.0199C7.14905 22.0195 5.61652 23.4653 4.43215 25.2807C3.58493 26.5506 4.42575 28.2642 5.95081 28.3691C6.67747 28.4191 7.37309 28.068 7.76456 27.4543C9.45359 24.8662 12.0882 23.4148 14.9998 23.4148C17.9133 23.4148 20.5493 24.8679 22.2382 27.459L22.2422 27.4651L22.2463 27.4712C23.1012 28.7418 25.011 28.6104 25.6839 27.2347L24.7856 26.7953L25.6839 27.2347C25.9873 26.6145 25.9474 25.8814 25.5785 25.2978L25.5786 25.2977L25.571 25.286C24.3859 23.4678 22.8478 22.0207 21.0761 21.0206C23.8317 18.4575 24.6908 14.3881 23.1603 10.9138L27.5018 9.46725ZM19.9363 14.499V14.4998C19.9374 18.2999 15.8243 20.6761 12.5328 18.777L12.0331 19.6432L12.5328 18.777C10.1922 17.4266 9.40719 14.4831 10.6444 12.1757L14.3707 13.4137C14.3708 13.4138 14.371 13.4138 14.3711 13.4138C14.7793 13.5498 15.2204 13.5498 15.6286 13.4138C15.6287 13.4138 15.6288 13.4138 15.629 13.4137L19.3549 12.1759C19.7353 12.8874 19.9367 13.685 19.9363 14.499Z" fill="#333333" stroke="white" stroke-width="2"/>
</svg>
